<?xml version="1.0" encoding="utf-8"?>
<!-- Generator: Adobe Illustrator 19.0.0, SVG Export Plug-In . SVG Version: 6.00 Build 0)  -->
<svg version="1.1" id="Layer_1" xmlns="http://www.w3.org/2000/svg" xmlns:xlink="http://www.w3.org/1999/xlink" x="0px" y="0px"
	 viewBox="334 -244 1280 1280" style="enable-background:new 334 -244 1280 1280;" xml:space="preserve">
<g transform="translate(0.000000,1280.000000) scale(0.100000,-0.100000)">
	<path d="M9435,15234c-27-2-115-8-195-14c-1157-85-2296-503-3249-1194c-563-407-1061-909-1466-1477c-904-1267-1313-2828-1149-4379
		c139-1318,672-2537,1548-3545c131-150,433-452,594-593c1444-1267,3361-1816,5262-1507c1055,172,2059,614,2912,1282
		c370,290,751,669,1055,1048c1775,2220,1861,5379,208,7694c-889,1245-2188,2133-3660,2500c-327,82-625,132-990,167
		C10155,15230,9549,15243,9435,15234z M9660,14686v-204l-72-6c-192-14-421-27-424-24c-4,5-46,400-42,403c3,3,256,19,506,33l32,2
		V14686z M10170,14869c96-6,178-14,181-17c5-6-29-393-36-400c-2-3-236,11-422,24l-73,6v204v205l88-6
		C9956,14882,10074,14875,10170,14869z M9116,14650c11-107,18-198,15-201s-67-14-141-23s-195-28-269-42s-137-21-141-17
		c-10,12-84,382-78,388c8,9,240,51,378,70c69,9,132,18,140,20s29,2,45,2l30-2L9116,14650z M10635,14820c144-21,335-57,342-64
		c5-5-72-384-80-392c-2-2-65,7-138,20c-74,14-195,33-269,42s-138,20-141,23c-4,3,1,87,12,186c10,99,18,188,18,199
		C10380,14855,10401,14854,10635,14820z M8475,14728c16-70,75-355,75-364c0-6-69-28-152-49c-84-20-206-53-271-73
		c-64-19-119-33-120-31s-29,85-61,184s-61,185-63,191c-4,12,160,63,402,125C8464,14756,8468,14756,8475,14728z M11210,14706
		c192-49,367-100,377-110c7-6-104-365-117-379c-4-4-58,7-121,26s-183,52-266,73c-89,21-153,42-153,49c0,15,68,355,75,373
		C11011,14756,11018,14754,11210,14706z M7919,14399c34-102,61-190,61-195s-33-20-73-32c-39-13-157-58-261-99c-103-41-190-73-191-71
		c-3,3-99,218-146,325l-18,42l47,22c107,48,513,201,518,195C7857,14586,7885,14501,7919,14399z M11955,14467c77-30,161-65,186-76
		l47-21l-80-177c-44-98-82-181-86-185s-88,26-187,65c-99,40-215,83-258,97c-42,14-77,30-77,35c0,8,100,332,115,372
		C11620,14591,11730,14555,11955,14467z M10170,14449c553-40,1136-175,1675-390c189-75,580-268,750-370c429-256,768-521,1121-873
		c442-442,766-889,1043-1436c547-1079,729-2287,526-3494c-298-1772-1461-3317-3090-4107c-950-460-1990-643-3043-534
		c-1897,197-3578,1357-4436,3065c-908,1805-782,3945,330,5631c207,315,432,588,718,875c456,455,901,776,1476,1062
		c727,363,1457,547,2320,586C9672,14469,10005,14461,10170,14449z M7350,14175c46-102,81-187,79-189s-60-31-129-64
		c-69-32-167-82-218-110l-92-50l-48,81c-158,268-158,268-136,284c16,12,451,233,459,233C7266,14360,7305,14277,7350,14175z
		 M12471,14234c102-52,193-100,203-107c17-13,12-25-79-183c-54-93-99-171-101-173c-5-6-443,213-444,221c0,4,28,69,61,145
		c34,76,70,157,80,180l18,42l38-15C12268,14335,12369,14286,12471,14234z M6718,13914c35-60,79-137,98-171l35-61l-108-67
		c-59-37-152-99-207-137c-54-38-102-66-106-61c-21,23-230,314-230,321c1,16,427,295,444,289C6650,14025,6683,13974,6718,13914z
		 M12966,13954c96-61,296-196,313-210c3-3-204-297-229-327c-4-5-52,23-106,61c-55,38-148,100-207,137s-107,71-105,76
		c12,35,195,339,204,339C12842,14030,12901,13996,12966,13954z M6294,13560c64-88,116-162,116-164c0-3-39-35-87-73
		c-112-86-305-247-322-267c-8-9-17-16-21-16c-10,0-270,290-270,301c0,16,441,379,461,379C6175,13720,6230,13648,6294,13560z
		 M13445,13618c140-109,325-266,325-275c0-4-185-216-251-287c-17-19-19-17-91,45c-91,81-159,136-270,222c-49,38-88,71-88,74
		c0,13,226,322,235,322C13311,13720,13374,13674,13445,13618z M5812,13183c68-76,127-144,131-150c5-8-62-83-190-211l-198-199
		l-144,131c-80,73-146,137-148,142c-4,11,402,424,417,424C5684,13320,5743,13258,5812,13183z M14014,13114c113-114,206-210,206-213
		c0-7-264-251-287-264c-9-6-72,51-211,190l-198,198l131,147c71,81,135,148,141,148C13803,13320,13900,13227,14014,13114z
		 M5385,12744c77-69,144-129,149-134c4-5-22-43-58-84c-81-93-267-326-273-343c-3-7-10-13-15-13c-11,0-315,218-324,231
		c-10,17,351,469,374,469C5242,12870,5308,12813,5385,12744z M14348,12755c51-61,134-163,184-228c75-99,88-121,77-131
		c-31-28-309-226-318-226c-5,0-11,6-14,13c-6,17-192,250-273,343l-67,77l89,81c49,44,114,104,144,133s62,52,70,50
		C14248,12866,14296,12815,14348,12755z M4999,12268c86-61,160-114,164-118c5-4-23-52-60-106c-38-55-100-147-137-206
		c-38-60-70-108-72-108c-4,0-335,190-343,196c-2,2,1,16,8,31c15,33,273,423,280,423C4841,12380,4913,12330,4999,12268z M14777,12183
		c147-223,158-242,146-253c-4-5-80-50-168-100c-88-51-163-94-166-96c-4-2-38,44-75,104c-37,59-99,151-137,206c-37,54-66,101-63,104
		c20,19,313,231,321,231C14641,12380,14705,12291,14777,12183z M4638,11694c92-53,170-98,174-100c3-2-22-57-57-121
		c-35-65-85-164-111-220c-26-57-50-103-54-103c-10,0-353,151-362,159c-12,10,222,481,239,481C4469,11790,4546,11747,4638,11694z
		 M15138,11562c62-123,112-230,110-239c-2-12-280-146-347-168c-14-4-27,15-65,97c-26,57-76,157-112,223s-61,121-57,123
		c4,1,80,45,168,97c88,51,167,93,175,92C15019,11786,15072,11691,15138,11562z M4578,11124c2-1-30-87-71-191c-41-103-85-221-98-260
		c-13-40-29-73-35-73s-95,27-197,60l-186,60l45,128c45,127,115,306,154,394l20,46l183-81C4493,11163,4577,11125,4578,11124z
		 M15316,11181c53-124,164-425,164-445c0-10-60-34-183-75c-100-34-187-61-192-61c-6,0-21,33-34,73c-13,39-57,157-98,262
		c-41,104-71,191-66,193c4,1,85,38,178,82c94,43,174,77,178,76C15268,11285,15292,11238,15316,11181z M15538,10558
		c56-191,119-448,110-448c-2,0-87-18-188-40s-190-40-196-40s-27,66-48,150c-20,82-53,202-72,266s-32,119-29,123c5,5,359,128,376,130
		C15494,10700,15516,10636,15538,10558z M4179,10634c97-31,180-60,184-64c5-4-8-61-28-126c-20-66-52-186-72-269
		c-20-82-37-151-37-151c-2-4-385,82-391,88c-17,16,135,578,157,578C3998,10690,4082,10665,4179,10634z M15679,9978
		c31-161,74-466,68-482c-4-10-239-41-386-50c-11-1-19,30-32,133c-10,73-30,197-44,274s-22,143-18,147c4,3,89,23,188,44
		s182,40,184,42C15653,10099,15660,10079,15679,9978z M4028,10040c102-22,187-42,189-44s-8-66-22-142s-33-197-42-268
		c-9-72-19-134-22-138c-6-6-392,30-400,38s50,405,79,542c7,28,16,52,22,52C3837,10080,3925,10062,4028,10040z M3950,9434
		c96-9,177-18,179-20c2-1-2-62-8-135c-6-72-11-162-11-199s-3-88-6-114l-7-46h-202h-203l4,88c9,192,26,437,30,444c3,5,15,6,27,3
		C3765,9453,3854,9443,3950,9434z M15760,9434c0-14,4-89,9-167c6-78,12-188,15-244l5-103h-203h-203l-7,46c-3,26-6,77-6,114
		s-5,127-11,199c-6,73-10,134-8,136c4,3,334,42,382,44C15756,9460,15760,9456,15760,9434z M4104,8714c3-26,6-77,6-114s5-127,11-199
		c6-73,10-134,8-136c-5-4-400-47-404-43c-3,3-21,282-29,451l-4,87h203h202L4104,8714z M15785,8673c-17-296-27-439-33-444
		c-4-3-96,3-206,14l-199,21l7,65c3,37,8,120,11,186s8,148,11,183l6,62h204h204L15785,8673z M4152,8100c9-73,29-196,43-273
		s22-143,18-147c-12-10-382-84-389-78c-15,15-100,555-91,581c2,8,70,19,193,33c104,12,193,21,199,19C4130,8234,4142,8174,4152,8100z
		 M15580,8214c91-9,167-18,169-20c10-10-78-577-93-591c-4-5-386,74-393,81c-2,2,8,64,21,139c14,75,33,194,42,264
		c20,163,17,155,56,149C15400,8233,15489,8223,15580,8214z M4265,7498c21-84,53-204,72-267c19-62,31-117,26-121
		c-10-10-349-120-368-120c-9,0-23,31-39,83c-39,125-129,487-123,494c7,6,342,80,373,82C4226,7650,4231,7636,4265,7498z M15428,7620
		c75-16,154-32,175-36c21-3,41-12,43-18c8-21-132-555-150-573c-6-6-366,106-379,117c-5,4,7,59,26,121c19,63,51,183,72,267
		c32,131,40,152,57,152C15283,7650,15353,7637,15428,7620z M15310,7019c91-28,168-54,172-58c13-12-197-561-216-561
		c-11,0-349,149-359,159c-4,4,17,65,47,137c29,71,72,183,95,249s44,126,46,132c3,9,11,10,27,3C15135,7075,15219,7048,15310,7019z
		 M4409,7007c13-39,57-157,98-260c41-104,73-190,71-191c-10-7-345-155-356-158c-16-4-68,115-163,372c-46,126-64,186-56,190
		c54,20,355,118,367,119C4380,7080,4393,7056,4409,7007z M4662,6393c37-76,87-175,112-220l45-83l-92-53c-265-155-258-152-274-131
		c-19,25-234,456-230,461c7,6,353,162,362,162C4591,6530,4626,6468,4662,6393z M15074,6454c94-42,174-79,179-83c7-7-195-424-225-464
		c-13-18-24-13-190,83l-176,101l45,82c24,45,74,144,111,220c36,75,70,137,75,137S14979,6496,15074,6454z M5032,5745
		c73-110,133-203,133-207c0-8-312-238-323-238c-4,0-62,82-128,183c-159,240-169,256-157,268c16,16,327,197,335,195
		C4896,5946,4959,5855,5032,5745z M14758,5854c92-53,169-99,172-101c7-7-33-73-159-263c-64-96-119-179-123-184c-4-6-227,145-335,228
		c-3,2,271,416,275,416C14590,5950,14667,5907,14758,5854z M14497,5372c67-48,122-91,123-95c0-18-341-444-371-462
		c-8-5-82,57-298,251c-11,10-2,25,51,86c74,85,207,250,257,320l34,48l41-31C14357,5472,14430,5420,14497,5372z M5225,5467
		c44-62,178-230,253-315l65-74l-24-23c-77-74-272-245-279-245c-19,0-375,438-375,461c0,11,305,238,320,238
		C5191,5509,5208,5491,5225,5467z M14163,4845c31-29,57-56,57-62c0-14-407-418-421-418c-6,0-71,65-143,145l-133,145l201,201l201,201
		l90-80C14064,4933,14131,4873,14163,4845z M5760,4853l197-198l-131-145c-72-80-136-145-144-145c-13,0-422,403-422,416
		c0,8,288,269,296,269C5559,5050,5651,4961,5760,4853z M6056,4575c71-63,296-243,342-275c21-15,20-17-96-177c-64-89-121-162-125-162
		c-23-2-462,356-462,376c0,9,255,303,263,303C5980,4640,6015,4611,6056,4575z M13640,4491c71-80,130-148,130-152
		c0-15-427-365-459-377c-10-3-241,310-241,326c0,5,6,12,13,15c18,7,300,233,362,290c28,25,53,45,57,44
		C13507,4636,13568,4570,13640,4491z M6640,4136c107-71,199-132,203-136c6-5-163-315-190-350c-7-8-75,33-263,158
		c-102,68-187,125-188,127c-5,5,232,335,238,332C6443,4266,6533,4207,6640,4136z M13164,4106c64-87,116-161,116-165
		c0-6-324-223-404-271c-38-23-39-23-53-4c-18,24-182,309-185,322c-3,10,390,280,404,278C13046,4265,13101,4194,13164,4106z
		 M7293,3763c75-37,137-70,137-75c0-10-150-351-159-361c-7-7-427,197-465,226c-19,14-17,18,43,123c35,60,81,139,102,176l39,67l83-45
		C7118,3849,7217,3799,7293,3763z M12596,3739c92-161,97-172,80-185c-24-17-332-174-408-207l-56-25l-83,184c-45,102-80,186-78,188
		s90,46,196,98c105,53,202,103,214,111c12,9,26,14,30,12C12495,3912,12542,3833,12596,3739z M7633,3612c88-35,202-79,255-97
		c54-19,96-37,96-42c-2-8-110-346-119-370c-3-9-35-2-117,27c-191,68-448,174-448,185c0,10,142,333,156,357c3,5,9,8,12,6
		C7472,3676,7546,3646,7633,3612z M12103,3503c43-98,79-182,79-187c0-16-507-216-547-216c-9,0-34,63-74,183c-34,100-61,187-61,192
		c0,6,39,23,88,39c48,16,161,59,252,96s170,68,175,69C12021,3679,12060,3600,12103,3503z M8119,3441c79-25,280-77,404-105
		c16-4,27-13,27-23c0-28-73-368-81-377c-14-16-579,135-579,154c0,18,121,380,127,380C8020,3470,8066,3457,8119,3441z M11534,3285
		c33-101,60-188,60-192c1-4-37-20-84-36c-109-35-490-131-496-124c-7,7-87,388-82,393c3,2,85,24,184,49c98,24,213,55,254,69
		c41,13,82,24,90,25C11471,3469,11491,3419,11534,3285z M8818,3280c95-16,207-32,248-36l76-7l-6-41c-3-23-13-113-22-201
		s-18-162-19-164c-10-10-578,79-592,93c-5,4,25,156,64,330l15,68l32-7C8631,3312,8723,3296,8818,3280z M10942,3140
		c20-96,37-185,38-197c0-18-8-23-52-32c-221-44-527-87-538-74c-13,15-47,395-36,398c6,2,83,13,171,25s201,30,250,40
		c50,10,99,17,110,17C10902,3315,10909,3292,10942,3140z M9480,3210c96-5,176-10,178-10c1,0,2-92,2-205v-204l-87,5
		c-277,15-439,27-444,32c-4,4,3,96,14,206l21,198l71-6C9273,3223,9384,3215,9480,3210z M10320,3223c0-5,9-91,20-193s20-190,20-196
		c0-10-46-14-462-39l-78-4v203v204l73,6c99,8,333,22,385,24C10301,3229,10320,3227,10320,3223z"/>
	<path d="M9120,14245c0-10,10-15,30-15c24,0,30-5,38-32c5-18,69-274,141-568l133-535l-94-395l-94-395l-57-3c-42-2-57-7-57-17
		c0-12,22-15,120-15s120,3,120,15c0,10-15,15-53,17l-54,3l87,363c48,199,89,365,92,367c3,3,45-156,93-352c49-197,90-364,93-370
		c3-9-6-13-27-13s-31-5-31-15c0-13,18-15,122-13c82,2,123,7,125,15c3,7-9,13-28,15l-33,3l-123,490c-67,270-123,500-123,512
		s38,183,85,380s95,400,107,451l22,92h88h88v-965v-965h-30c-20,0-30-5-30-15c0-13,34-15,245-15s245,2,245,15c0,10-10,15-30,15h-30
		v965v965h30c20,0,30,5,30,15c0,13-48,15-370,15s-370-2-370-15c0-12,13-15,56-15c53,0,56-1,51-22c-6-24-185-771-197-823l-7-30
		l-11,40c-6,22-56,219-110,437l-99,397l30,3c17,2,32,9,35,16c3,9-26,12-122,12C9141,14260,9120,14258,9120,14245z M10180,13265v-965
		h-65h-65v965v965h65h65V13265z"/>
	<path d="M7255,13664c-110-64-204-119-209-124c-4-5-5-13-2-19c5-7,21-2,46,14c22,14,43,25,48,25c6,0,118-363,247-805
		c14-50,13-48-270,240c-157,160-298,305-313,324l-27,34l23,15c24,16,29,32,9,32c-10,0-192-102-206-115c-1-2,0-8,4-14c4-8,15-6,33,3
		l28,14l404-419l405-420l118-392c90-301,115-394,105-400c-7-4-30-18-50-30c-24-14-35-26-30-34c5-9,38,5,110,48c93,54,121,79,91,79
		c-6,0-29-10-50-22s-40-20-42-17c-2,2-50,162-107,354c-56,193-105,357-108,365c-5,13,77-69,448-453l85-88l-24-18c-13-10-21-23-17-29
		c6-10,53,15,205,107c8,5,11,14,6,20c-5,9-13,8-32-5c-25-16-26-15-53,12c-15,16-177,183-360,372l-333,343l-124,412
		c-68,227-130,433-137,458l-14,46l74,43c43,25,79,39,84,34c4-5,222-380,484-834l476-825l-25-15c-27-16-35-46-10-36c8,3,58,31,111,62
		c63,37,92,60,86,66s-18,6-32-2c-12-7-26-8-30-3c-5,4-216,368-470,808s-468,811-477,824c-16,25-16,25,27,51c10,6,12,12,5,19
		S7390,13742,7255,13664z"/>
	<path d="M12324,13589c-4-7-3-14,3-16s18-9,27-16c16-11-29-93-452-827c-259-448-476-824-484-834c-13-18-15-18-40-2
		c-22,14-26,15-31,2c-8-19,199-141,210-124c3,7-3,18-15,26s-22,19-22,23c0,5,214,381,476,835c366,633,481,824,493,821
		c9-3,24-8,34-12c11-5,17-3,17,6c0,8-44,39-97,69C12325,13607,12333,13604,12324,13589z"/>
	<path d="M5176,11774c-62-105-67-119-48-119c7,0,23,18,35,39s26,39,30,38c8-1,647-602,647-608c0-1-15,2-32,7c-18,5-208,59-423,120
		c-214,61-394,115-398,119c-5,4-3,17,4,29c10,15,10,24,2,32s-27-19-72-97c-46-80-59-109-49-115c8-5,17,0,26,17c10,19,19,24,35,20
		c12-3,265-75,561-160c398-115,546-161,565-178c47-43,571-540,571-543c0-1-12-24-26-49c-18-32-23-51-17-57c7-7,31,26,73,96
		c43,74,59,110,52,117c-8,8-19-3-39-36c-15-25-31-45-35-44c-12,5-548,518-541,518c12,0,717-202,723-207c2-2-2-13-9-25
		c-9-14-10-23-2-31c6-6,12-9,14-6c12,13,117,202,117,210c0,18-29,9-35-11c-3-11-13-20-20-20c-8,0-235,63-505,139l-491,139l-187,179
		c-103,98-258,245-344,327l-158,148l25,42c14,24,25,48,25,54C5250,11888,5227,11862,5176,11774z"/>
	<path d="M14297,11744c-3-3,1-17,10-30c9-14,13-27,10-31c-4-3-379-221-834-484l-828-478l-15,25c-14,22-40,33-40,16
		c0-16,238-416,250-420c13-5,11,11-4,48c-5,12,188,127,826,496l833,481l15-24c14-22,40-32,40-15c0,13-237,416-247,419
		C14308,11749,14301,11748,14297,11744z M14417,11526l31-54l-835-483c-656-378-837-479-845-468c-29,44-49,92-40,101
		s1643,956,1652,957C14383,11579,14399,11555,14417,11526z"/>
	<path d="M4320,9215c0-97,3-126,13-123c7,3,13,26,15,56c2,29,5,52,7,52s91-21,197-46c482-115,595-142,626-149c18-4,31-9,29-12
		c-3-3-197-53-431-113l-425-108l-3,31c-5,52-25,43-30-14c-9-94,4-450,16-446c6,2,12,18,14,35l3,32h959h959l3-32c2-17,9-33,16-36
		c9-3,12,26,12,123s-3,126-12,123c-7-3-14-17-16-31l-3-27h-960h-959v60v59l38,10c20,6,274,69,564,142l528,131l397-94l398-95l3-56
		c2-42,7-57,17-57c12,0,15,22,15,120c0,100-2,120-15,120c-11,0-15-12-15-50c0-43-3-50-19-50c-11,0-129,27-263,59
		c-133,32-286,69-338,81c-52,13-101,26-109,30c-10,5,694,190,724,190c3,0,5-13,5-30c0-20,5-30,15-30c13,0,15,18,13,122
		c-2,82-7,123-15,125c-7,3-13-9-15-28l-3-32l-490-123c-269-68-500-124-513-124c-12,0-172,36-355,79c-182,43-385,91-449,106l-117,28
		l-3,55c-2,33-8,57-15,60C4323,9341,4320,9312,4320,9215z"/>
	<path d="M13173,8843c1-282,5-367,15-371c8-2,12,7,12,27v31h965h965v-30c0-20,5-30,15-30c13,0,15,48,15,370s-2,370-15,370
		c-10,0-15-10-15-30v-30h-965h-965v30c0,20-5,30-15,30C13172,9210,13171,9162,13173,8843z M15130,8965v-65h-965h-965v58
		c0,32,3,62,7,65c3,4,438,7,965,7h958V8965z M15130,8715v-65l-962,2l-963,3l-3,63l-3,62h966h965V8715z"/>
	<path d="M12922,7483c-270-465-452-783-452-788c0-14,31-3,40,15c6,11,14,20,19,20c7,0,1650-946,1660-956c3-3,0-14-7-24
		c-7-11-12-24-12-30c0-42,55,44,267,413c175,303,240,424,232,432c-8,7-13,7-16-1c-2-6-9-19-16-29c-12-15-88,26-833,456
		c-450,259-825,478-832,484c-11,10-11,17-2,35c8,15,8,26,2,32C12965,7549,12949,7529,12922,7483z M13725,6900
		c451-260,824-476,829-481c9-8-42-109-55-109c-7,0-1577,903-1646,946l-22,14l32,54c18,30,34,53,37,51
		C12903,7374,13274,7160,13725,6900z M13587,6694c445-256,818-472,831-481l23-14l-30-52c-17-29-35-51-40-50c-11,3-1642,943-1654,953
		c-5,5-2,20,7,34s23,37,31,51c9,14,18,25,20,25C12778,7160,13143,6950,13587,6694z M13498,6461l820-474l-29-51c-16-28-33-51-39-51
		c-18,0-1659,950-1660,961c0,5,14,31,30,57c21,34,34,46,43,40C12671,6939,13046,6722,13498,6461z"/>
	<path d="M6400,7470c-125-38-198-60-775-230c-170-50-461-136-645-191s-342-102-351-105c-13-3-21,8-35,46c-10,27-24,50-31,50
		s-13-4-13-9c0-21,79-216,89-219c15-5,14,22-4,65c-8,20-14,38-12,40c2,1,118,37,258,79c140,41,403,120,584,174
		c182,54,454,135,605,180s288,85,304,91c16,5,30,8,32,6c3-3-1326-1291-1337-1295c-4-2-10,6-14,17c-6,21-35,30-35,12c0-5,15-35,33-68
		c56-98,449-778,453-782c1-1,7,0,13,4c8,4,6,15-4,35l-15,28l698,403c383,221,758,437,832,481l135,78l20-25c23-27,35-32,35-12
		c0,6-81,152-179,322c-159,275-202,339-193,289c1-8,3-21,5-30c1-11-241-155-828-494c-456-264-832-476-836-472c-3,4-18,28-32,53
		l-26,46l167,164c92,91,418,407,725,703s556,541,555,545c-2,3-10,18-17,34c-8,15-19,27-25,26C6530,7509,6469,7491,6400,7470z
		 M6955,6736c16-30,27-57,25-59c-8-8-1636-946-1651-952s-73,79-66,98c2,8,1640,962,1657,966C6923,6790,6939,6766,6955,6736z
		 M7080,6519c17-28,30-52,28-54c-2-1-367-213-813-470c-445-257-820-473-832-481c-21-13-24-12-53,38c-16,29-30,55-30,58s69,44,153,92
		c83,48,456,263,827,477c371,215,678,391,682,391C7045,6570,7062,6547,7080,6519z"/>
	<path d="M7203,5463c-296-313-608-641-692-731l-154-162l-43,35c-28,23-45,31-50,24c-3-6,2-19,12-28c11-10,49-46,87-81
		c48-45,71-60,78-53c8,8-1,22-30,49l-40,39l642,677c353,372,642,676,643,675c3-2-507-1790-511-1795c-2-2-12,2-24,10c-14,9-24,9-31,2
		s85-65,302-190c171-98,318-180,325-182c24-6,13,25-13,37l-25,11l19,33c11,17,228,392,482,832s463,801,465,804c3,2,16-4,29-13
		c17-11,27-12,32-5c3,6,2,14-2,19c-13,11-396,231-407,233c-22,4-16-23,7-35l25-13l-480-830c-300-519-485-830-494-829
		c-8,1-34,13-58,27l-44,26l122,428c68,235,191,664,274,953c84,289,153,533,154,543s-11,26-29,37l-32,20L7203,5463z M8489,5564
		c25-15,48-28,50-30c1-1-214-379-479-838l-482-835l-47,26c-25,14-50,29-54,33c-6,5,844,1496,939,1648C8434,5596,8434,5596,8489,5564
		z"/>
	<path d="M11422,5849c-21-14-31-27-28-38c2-9,16-54,30-101c13-47,89-301,167-565c119-405,346-1167,365-1228c4-14-6-22-46-39
		c-28-11-49-25-48-30c5-15,13-13,128,32c75,29,107,47,103,56c-4,10-15,9-55-7c-28-11-53-18-55-15c-6,6-44,131-378,1256
		c-53,179-110,367-126,419s-27,96-25,98s268-270,591-604c324-334,615-636,648-670l60-62l-26-12c-15-7-23-17-20-26c4-10,23-4,82,28
		c110,60,145,86,131,94c-7,4-23,1-36-6c-30-15,53-97-744,731c-320,333-606,628-634,657l-51,52L11422,5849z"/>
	<path d="M9536,5393c-5-16-60-246-261-1083c-36-151-93-390-126-530s-64-272-70-292l-9-37l-53,2c-100,4-60-18,62-34
		c93-12,121-12,121-3c0,15-23,24-64,24c-18,0-35,2-38,5s4,47,16,98c13,51,110,458,216,906c129,537,197,807,202,795
		c7-18,448-1778,448-1789c0-3-11-5-25-5c-16,0-25-6-25-15c0-13,34-15,245-15s245,2,245,15c0,10-11,15-35,15h-35l2,963l3,962l33,3
		c20,2,32,8,29,15c-5,17-239,17-244,0c-3-9,6-13,26-13h31v-965v-966l-62,3l-63,3l-244,978l-243,977h-38
		C9552,5410,9540,5405,9536,5393z"/>
</g>
<ellipse cx="974.9" cy="396.1" rx="12.7" ry="12.9"/>
</svg>
