<?xml version="1.0" encoding="utf-8"?>
<!-- Generator: Adobe Illustrator 19.0.0, SVG Export Plug-In . SVG Version: 6.00 Build 0)  -->
<svg version="1.1" xmlns="http://www.w3.org/2000/svg" xmlns:xlink="http://www.w3.org/1999/xlink" x="0px" y="0px"
	 viewBox="0 0 576 576" style="enable-background:new 0 0 576 576;" xml:space="preserve">
<style type="text/css">
	.st0{fill:none;}
	.st1{fill:#010101;}
	.st2{fill:none;stroke:#000000;stroke-width:2;stroke-miterlimit:10;}
</style>
<g id="Layer_2">
	<g id="XMLID_1_">
		<circle id="XMLID_57_" class="st0" cx="292.5" cy="302.1" r="276.4"/>
		<path id="XMLID_3_" d="M204,102.7l0.5-0.2c0.9-0.4,1.4-1.2,1.4-2.6c0-1.4-0.5-3.3-1.5-5.8c-0.5-1.4-1-2.7-1.5-3.9
			c-0.5-1.2-1.2-3.2-2.3-5.9c-1-2.6-2.1-5.5-3.3-8.6s-2-5.3-2.4-6.3c-0.5-1.2-1-2.2-1.4-2.9s-0.8-1.2-1.2-1.6
			c-0.8-0.9-1.7-1.1-2.5-0.8l-0.5,0.2l-0.4-1.1l9.5-3.7l0.4,1.1l-0.3,0.1c-0.9,0.4-1.4,1.2-1.4,2.6c0,1.4,0.5,3.3,1.5,5.8l4.2,10.9
			l8.1-3.1L206.5,66c-1-2.5-1.9-4.3-2.8-5.3c-0.9-1-1.8-1.4-2.8-1l-0.3,0.1l-0.4-1.1l9.4-3.6l0.4,1.1l-0.4,0.2
			c-0.9,0.4-1.4,1.2-1.4,2.6s0.5,3.3,1.5,5.8l9.1,23.7c1,2.5,1.9,4.3,2.8,5.3c0.9,1,1.9,1.4,2.8,1l0.4-0.2l0.4,1.1l-9.4,3.6
			l-0.4-1.1l0.3-0.1c0.9-0.4,1.4-1.2,1.4-2.6c0-1.4-0.5-3.3-1.5-5.8l-4.5-11.6l-8.1,3.1l4.5,11.6c1,2.5,1.9,4.3,2.8,5.3
			s1.9,1.4,2.8,1l0.3-0.1l0.4,1.1l-9.5,3.6L204,102.7z"/>
		<path id="XMLID_7_" d="M227.6,94l0.4-0.1c1-0.3,1.5-1.1,1.6-2.5c0.1-1.4-0.2-3.4-1-6c-0.3-1.1-0.5-2.1-0.7-2.9
			c-0.2-0.8-0.5-1.8-0.8-2.9c-0.3-1.1-0.7-2.4-1.2-4c-2-6.8-3.5-12-4.7-15.4c-0.4-1.4-0.8-2.5-1.2-3.2c-0.3-0.7-0.7-1.3-1.1-1.8
			c-0.7-0.9-1.6-1.3-2.5-1l-0.4,0.1l-0.3-1.1l9.8-2.8l0.3,1.1l-0.4,0.1c-1,0.3-1.5,1.1-1.6,2.5c-0.1,1.4,0.2,3.4,1,6l7,24.4
			c0.7,2.6,1.5,4.4,2.3,5.6c0.8,1.1,1.7,1.5,2.7,1.3l0.4-0.1l0.3,1.2l-9.8,2.8L227.6,94z"/>
		<path id="XMLID_10_" d="M250,45.4l0.4-0.1l3.7,18.5l-0.4,0.1c-0.7-2.2-1.3-3.9-1.7-5.2c-0.5-1.3-0.9-2.4-1.4-3.3
			c-1.3-2.8-2.7-4.9-4.2-6.4c-1.5-1.5-2.8-2.1-4-1.9c-0.6,0.1-1.2,0.5-1.7,1.3s-0.8,1.6-1,2.7c-0.3,1.8-0.3,4.2,0,7.3
			c0.3,3,0.9,6.9,1.8,11.6c0.3,1.4,0.6,2.8,0.9,4.2c0.3,1.4,0.6,2.6,0.9,3.7s0.6,2.1,0.9,3.1c0.3,1,0.6,1.8,0.9,2.5
			c0.4,1,0.9,1.9,1.3,2.6s0.9,1.4,1.5,1.9s1,0.9,1.5,1.1c0.5,0.2,1,0.2,1.5,0.1c0.6-0.1,1.2-0.5,1.8-1c0.6-0.6,1-1.2,1.2-2
			c0.5-1.5,0.5-3.5,0-5.8l-0.4-2.2c-1-5.2-2.5-7.6-4.4-7.2l-1.4,0.3l-0.2-1.1l10.9-2.1l0.2,1.1l-0.4,0.1c-1,0.2-1.6,1-1.8,2.3
			c-0.2,1.4-0.1,3.4,0.4,6l2,10.1l-0.4,0.1c-0.5-0.8-0.9-1.3-1.2-1.5s-0.7-0.3-1-0.2c-0.3,0.1-0.6,0.2-0.9,0.4
			c-0.3,0.2-0.6,0.7-1,1.3c-0.7,1-1.2,1.6-1.7,2s-1,0.6-1.7,0.8c-1.3,0.3-2.7,0-4-0.9c-1.4-0.9-2.7-2.2-3.9-4s-2.4-4-3.3-6.7
			c-1-2.6-1.8-5.5-2.4-8.6c-0.4-1.9-0.6-3.8-0.8-5.6s-0.2-3.6-0.2-5.3c0-1.6,0.2-3.2,0.4-4.7c0.3-1.7,0.7-3.1,1.2-4.4s1.1-2.2,1.8-3
			c0.7-0.7,1.4-1.2,2.2-1.3c0.8-0.2,1.6,0,2.5,0.4s1.9,1.1,3,2.1c0.9,0.8,1.4,1.2,1.7,1.1c0.3-0.1,0.5-0.4,0.7-1
			C249.9,47.8,250,46.8,250,45.4z"/>
		<path id="XMLID_12_" d="M263.4,85.9l0.5,0c1-0.1,1.7-0.8,2-2.1c0.4-1.3,0.5-3.3,0.2-6c0-1.5-0.1-2.9-0.2-4.2
			c-0.1-1.3-0.2-3.3-0.5-5.9c-0.2-2.8-0.5-5.9-0.9-9.4c-0.3-3.4-0.6-5.6-0.7-6.7c-0.2-1.5-0.3-2.7-0.5-3.4c-0.2-0.8-0.4-1.4-0.7-1.9
			c-0.6-1.1-1.3-1.6-2.2-1.5l-0.6,0l-0.1-1.2l10.2-0.8l0.1,1.2l-0.4,0c-1,0.1-1.7,0.8-2,2.1c-0.4,1.3-0.5,3.3-0.2,6l1,11.7l8.7-0.7
			l-1-11.7c-0.2-2.7-0.6-4.7-1.2-5.9c-0.6-1.2-1.4-1.8-2.4-1.8l-0.3,0l-0.1-1.2l10.1-0.8l0.1,1.2l-0.5,0c-1,0.1-1.7,0.8-2,2.1
			c-0.4,1.3-0.5,3.3-0.2,6l2.1,25.3c0.2,2.7,0.6,4.6,1.2,5.9c0.6,1.3,1.4,1.9,2.3,1.8l0.5,0l0.1,1.2l-10.1,0.8l-0.1-1.2l0.3,0
			c1-0.1,1.7-0.8,2-2.1c0.4-1.3,0.5-3.3,0.2-6l-1-12.4l-8.7,0.7l1,12.4c0.2,2.7,0.6,4.6,1.2,5.9c0.6,1.3,1.4,1.9,2.3,1.8l0.4,0
			l0.1,1.2l-10.1,0.8L263.4,85.9z"/>
		<path id="XMLID_14_" d="M300,41.8l18.9,1.2l-1.4,22.1l-0.4,0c0.2-5.5-0.1-10.3-0.9-14.4c-0.9-4.6-2.4-6.9-4.3-7.1l-0.8-0.1
			L309,76.9c-0.3,5.3,0.5,8,2.4,8.1l2.4,0.2l-0.1,1.2l-14.1-0.9l0.1-1.2l2.4,0.2c2,0.1,3.1-2.5,3.4-7.7l2.1-33.3l-1-0.1
			c-1.9-0.1-3.6,2.2-5.2,7c-0.7,2.4-1.4,5.2-1.9,8.5c-0.2,1.1-0.4,2.8-0.6,5.1l-0.4,0L300,41.8z"/>
		<path id="XMLID_17_" d="M319.4,85.8l0.4,0.1c1,0.1,1.8-0.4,2.5-1.6c0.7-1.2,1.2-3.2,1.6-5.8c0.2-1.1,0.4-2.1,0.6-2.9
			c0.2-0.9,0.3-1.8,0.5-2.9c0.2-1.1,0.4-2.5,0.6-4.2c1-7.1,1.7-12.4,2.1-16c0.2-1.4,0.2-2.6,0.2-3.4s-0.1-1.5-0.3-2.1
			c-0.3-1.2-0.9-1.8-1.8-1.9l-0.4-0.1l0.2-1.1l10.1,1.5l-0.2,1.1l-0.4-0.1c-1-0.1-1.8,0.4-2.5,1.6c-0.7,1.2-1.2,3.2-1.6,5.8
			L327.3,79c-0.4,2.7-0.4,4.7-0.1,6c0.3,1.4,0.9,2.1,1.9,2.3l0.4,0.1l-0.2,1.2l-10.1-1.5L319.4,85.8z"/>
		<path id="XMLID_19_" d="M341.9,46.3l10.4,2.5c1.7,0.4,3,1.3,4,2.8c1,1.4,1.6,3.5,1.9,6c0.3,2.2,0.4,4.7,0.2,7.4
			c-0.2,2.7-0.6,5.4-1.2,8.1c-0.7,3-1.6,5.7-2.6,8.1c-1.1,2.4-2.2,4.5-3.5,6.1c-1.3,1.6-2.6,2.8-4,3.6c-1.4,0.7-2.7,0.9-4.1,0.6
			l-11.2-2.6l0.3-1.2l0.6,0.1c1,0.2,1.8-0.2,2.6-1.4c0.8-1.2,1.5-3,2.1-5.7l5.8-24.7c0.6-2.6,0.8-4.6,0.7-6
			c-0.2-1.4-0.7-2.2-1.7-2.4l-0.6-0.1L341.9,46.3z M348.4,49l-9.5,40.2l3,0.7c0.9,0.2,1.6,0.2,2.3,0.1c0.7-0.1,1.3-0.4,1.9-0.9
			c0.6-0.5,1.2-1.2,1.7-2.1c2.1-3.1,3.9-8.3,5.6-15.4c0.6-2.3,1-4.6,1.3-6.7s0.5-4,0.6-5.6c0.1-1.7,0-3.1-0.1-4.4
			c-0.1-1.1-0.4-1.9-0.7-2.7c-0.3-0.7-0.8-1.3-1.3-1.7c-0.5-0.4-1.2-0.7-2.1-0.9L348.4,49z"/>
		<path id="XMLID_55_" d="M369.3,53.2l16.2,5.6l-5.5,16l-0.3-0.1c0.7-2.9,1.1-5.1,1.4-6.6c0.2-1.5,0.4-2.9,0.4-4.3
			c0.1-1.6-0.1-2.9-0.4-3.7c-0.5-1.3-1.5-2.2-2.7-2.6l-3-1l-6.8,19.6l0.8,0.3c1.2,0.4,2.6-0.7,4.3-3.2c0.9-1.3,1.7-2.9,2.6-4.9
			c0.4-0.8,0.9-2,1.5-3.7l0.4,0.1l-9.4,27l-0.4-0.1c0.4-1.5,0.8-2.9,1.1-4.2c0.3-1.3,0.6-2.4,0.7-3.3c0.1-0.9,0.2-1.7,0.3-2.6
			c0.1-2.4-0.5-3.8-1.7-4.2l-0.6-0.2l-6.4,18.5l2.5,0.9c0.7,0.3,1.5,0.3,2.2,0.3c0.7-0.1,1.4-0.3,2.1-0.8c0.7-0.4,1.4-1.1,2.1-1.9
			c1.3-1.4,2.5-3.2,3.8-5.5c0.7-1.3,1.6-3.1,2.7-5.4l0.4,0.1l-5.9,17l-16.6-5.8l0.4-1.1l0.4,0.1c1.8,0.6,3.6-1.6,5.4-6.6l8.3-24
			c0.9-2.6,1.3-4.5,1.3-5.9c0-1.4-0.5-2.2-1.5-2.6l-0.4-0.1L369.3,53.2z"/>
	</g>
</g>
<g id="Layer_4">
	<g id="XMLID_192_">
		<circle id="XMLID_138_" class="st0" cx="292.9" cy="279.4" r="276.4"/>
		<path id="XMLID_24_" d="M215.1,474.2l10.4,3.6l-0.4,1.1l-1.1-0.4c-0.9-0.3-1.8,0-2.7,1.1c-0.9,1.1-1.8,2.9-2.7,5.4l-11,31.5l4,1.4
			c0.8,0.3,1.7,0.1,2.7-0.6c1-0.7,2.1-1.8,3.2-3.3c0.7-0.9,1.3-1.9,1.9-2.8c0.6-0.9,1.2-2.1,2-3.5c0.7-1.4,1.5-3,2.4-4.8l0.4,0.1
			l-6.4,18.2l-17-6l0.4-1.1l0.6,0.2c1.8,0.6,3.7-1.5,5.4-6.6l8.4-24c1.7-5,1.7-7.8-0.1-8.5l-0.5-0.2L215.1,474.2z"/>
		<path id="XMLID_94_" d="M243.7,482.2c1.5,0.4,2.7,1.3,3.6,2.9c0.9,1.6,1.5,3.7,1.8,6.3c0.3,2.2,0.3,4.7,0.1,7.3
			c-0.2,2.6-0.6,5.3-1.3,7.9c-1,4-2.3,7.6-3.9,10.7s-3.4,5.5-5.3,7.2c-1.9,1.6-3.7,2.2-5.4,1.8c-1.3-0.3-2.4-1.2-3.3-2.6
			c-0.9-1.4-1.5-3.2-1.9-5.5c-0.4-2.2-0.5-4.8-0.3-7.6c0.2-2.8,0.6-5.7,1.3-8.7c0.9-3.9,2.3-7.5,3.9-10.7c1.7-3.2,3.5-5.6,5.4-7.3
			S242,481.8,243.7,482.2z M243.7,483.3c-0.7-0.2-1.4,0-2.2,0.5c-0.8,0.5-1.5,1.3-2.2,2.4c-0.8,1.2-1.5,2.6-2.2,4.3
			c-0.7,1.7-1.5,3.6-2.1,5.7c-0.7,2.1-1.3,4.4-1.9,6.9c-0.8,3.1-1.3,6-1.7,8.6c-0.4,2.6-0.5,4.9-0.5,6.9c0,2,0.3,3.5,0.7,4.7
			c0.4,1.1,1.1,1.8,1.9,2c1.1,0.3,2.3-0.4,3.5-1.9c1.2-1.5,2.5-3.8,3.7-6.9c1.2-3.1,2.3-6.8,3.4-11.2c0.7-2.8,1.2-5.5,1.6-8
			c0.4-2.5,0.5-4.8,0.5-6.7c0-1.9-0.2-3.5-0.6-4.8c-0.2-0.6-0.4-1.2-0.8-1.6C244.4,483.7,244.1,483.4,243.7,483.3z"/>
		<path id="XMLID_108_" d="M254.2,485.7l8.3,1l-0.1,1.2c-0.7-0.1-1.2,0.1-1.6,0.6c-0.4,0.4-0.6,1.2-0.7,2.2c-0.1,1-0.2,2-0.2,3.2
			l0.3,25.8l5.9-21.6c0-2.1-0.1-3.7-0.1-4.7s-0.2-1.9-0.5-2.8c-0.2-0.8-0.4-1.4-0.7-1.7c-0.3-0.3-0.6-0.5-1-0.6l0.1-1.1l8.7,1
			l-0.1,1.1l-0.4-0.1c-0.7-0.1-1.3,0.2-1.7,0.8c-0.5,0.6-0.8,1.5-0.9,2.7c-0.1,0.8-0.1,1.6-0.1,2.3l0.4,25.9l6.2-22.9
			c0.3-1.2,0.5-2.4,0.7-3.4c0.2-1.6,0.1-2.7-0.3-3.6c-0.4-0.8-1-1.3-1.9-1.5l0.1-1.2l6.4,0.8l-0.1,1.1c-0.4,0-0.8,0.2-1.1,0.4
			c-0.3,0.2-0.6,0.7-1,1.3c-0.8,1.3-1.6,3.4-2.4,6.4l-9.2,34l-0.4-0.1l-0.5-32.8l-8.7,31.7l-0.4-0.1l-0.5-34.9
			c0-3.2-0.2-5.5-0.6-6.9c-0.3-1.4-0.9-2.2-1.6-2.3l-0.4,0L254.2,485.7z"/>
		<path id="XMLID_129_" d="M290.9,489.1l18.9-0.7l0.8,22.1l-0.4,0.1c-0.4-5.5-1.2-10.3-2.3-14.2c-1.4-4.5-3-6.7-4.9-6.6l-0.8,0
			l1.2,33.3c0.2,5.3,1.3,7.9,3.2,7.8l2.4-0.1l0,1.2l-14.1,0.5l0-1.2l2.4-0.1c2-0.1,2.8-2.7,2.7-8l-1.2-33.3l-1,0
			c-1.9,0.1-3.4,2.6-4.4,7.5c-0.5,2.4-0.9,5.3-1.1,8.6c-0.1,1.1-0.1,2.8-0.1,5.1l-0.4,0L290.9,489.1z"/>
		<path id="XMLID_131_" d="M317.3,530.2l0.4-0.1c1-0.1,1.6-0.8,2-2.2s0.3-3.4,0-6c-0.1-1.1-0.1-2.1-0.2-3c-0.1-0.9-0.2-1.8-0.3-3
			c-0.1-1.1-0.3-2.5-0.5-4.2c-0.8-7.1-1.5-12.4-2.1-16c-0.2-1.4-0.4-2.6-0.6-3.4c-0.2-0.8-0.5-1.4-0.8-2c-0.6-1-1.3-1.5-2.3-1.4
			l-0.4,0.1l-0.1-1.1l10.1-1.2l0.1,1.1l-0.4,0.1c-1,0.1-1.6,0.8-2,2.2c-0.3,1.3-0.3,3.4,0,6l2.9,25.2c0.3,2.7,0.8,4.6,1.4,5.9
			s1.4,1.8,2.4,1.7l0.4-0.1l0.1,1.2l-10.1,1.2L317.3,530.2z"/>
		<path id="XMLID_133_" d="M324.5,486.8l10.5-2.1c1.7-0.3,3.3-0.1,4.8,0.8s2.9,2.4,4.3,4.7c1.2,1.9,2.3,4.1,3.2,6.6s1.7,5.1,2.3,7.9
			c0.6,3,1,5.8,1,8.5c0.1,2.6-0.1,5-0.6,7s-1.2,3.7-2.1,4.9c-0.9,1.2-2.1,2-3.4,2.3l-11.2,2.3l-0.2-1.2l0.6-0.1c1-0.2,1.6-1,1.8-2.4
			s0-3.4-0.5-6l-5.1-24.9c-0.5-2.7-1.2-4.6-1.9-5.7c-0.7-1.2-1.6-1.7-2.6-1.5l-0.6,0.1L324.5,486.8z M331.5,486.5l8.3,40.4l3.1-0.6
			c0.9-0.2,1.6-0.5,2.1-0.9c0.5-0.4,1-0.9,1.3-1.6c0.3-0.7,0.6-1.6,0.7-2.6c0.5-3.7,0.1-9.1-1.4-16.3c-0.5-2.3-1-4.5-1.6-6.6
			s-1.2-3.9-1.8-5.4c-0.6-1.5-1.3-2.9-2-4c-0.6-0.9-1.2-1.6-1.7-2.1c-0.6-0.5-1.2-0.8-1.9-1s-1.4-0.1-2.3,0.1L331.5,486.5z"/>
		<path id="XMLID_136_" d="M347.1,482l16.4-5.1l5.1,16.1l-0.3,0.1c-1.2-2.7-2.1-4.8-2.8-6.1c-0.7-1.3-1.4-2.6-2.2-3.7
			c-0.9-1.3-1.8-2.3-2.5-2.7c-1.2-0.7-2.5-0.9-3.8-0.5l-3,1l6.2,19.8l0.8-0.3c1.2-0.4,1.7-2.1,1.6-5.1c-0.1-1.6-0.4-3.4-0.8-5.4
			c-0.2-0.9-0.5-2.2-0.9-3.9l0.4-0.1l8.6,27.3l-0.4,0.1c-0.5-1.4-1.1-2.8-1.6-4.1c-0.5-1.3-1-2.3-1.4-3c-0.4-0.8-0.9-1.5-1.3-2.3
			c-1.4-2-2.6-2.8-3.9-2.4l-0.6,0.2l5.8,18.6l2.5-0.8c0.8-0.2,1.4-0.6,1.9-1.1c0.5-0.5,0.9-1.1,1.2-1.8c0.3-0.8,0.5-1.7,0.6-2.8
			c0.2-1.9,0.1-4.1-0.3-6.7c-0.2-1.5-0.6-3.5-1.1-6l0.4-0.1l5.4,17.1l-16.8,5.3l-0.4-1.1l0.4-0.1c1.9-0.6,2-3.4,0.4-8.5l-7.6-24.2
			c-0.8-2.6-1.6-4.4-2.5-5.5c-0.8-1.1-1.7-1.5-2.7-1.2l-0.4,0.1L347.1,482z"/>
	</g>
</g>
<g id="Layer_5">
	<g id="XMLID_30_" transform="translate(0.000000,1280.000000) scale(0.100000,-0.100000)">
		<path id="XMLID_117_" class="st1" d="M2736.9,12781.3c-12.1-0.9-51.4-3.6-87.1-6.3c-517.1-38-1026.1-224.8-1452-533.6
			c-251.6-181.9-474.2-406.2-655.2-660.1c-404-566.2-586.8-1263.9-513.5-1957c62.1-589,300.3-1133.8,691.8-1584.3
			c58.5-67,193.5-202,265.5-265c645.3-566.2,1502.1-811.6,2351.6-673.5c471.5,76.9,920.2,274.4,1301.4,572.9
			c165.4,129.6,335.6,299,471.5,468.4c793.3,992.1,831.7,2403.9,93,3438.5c-397.3,556.4-977.8,953.3-1635.7,1117.3
			c-146.1,36.6-279.3,59-442.4,74.6C3058.7,12779.5,2787.8,12785.3,2736.9,12781.3z M2837.4,12536.4v-91.2l-32.2-2.7
			c-85.8-6.3-188.1-12.1-189.5-10.7c-1.8,2.2-20.6,178.8-18.8,180.1c1.3,1.3,114.4,8.5,226.1,14.7l14.3,0.9V12536.4z
			 M3065.4,12618.2c42.9-2.7,79.5-6.3,80.9-7.6c2.2-2.7-13-175.6-16.1-178.8c-0.9-1.3-105.5,4.9-188.6,10.7l-32.6,2.7v91.2v91.6
			l39.3-2.7C2969.7,12624,3022.5,12620.9,3065.4,12618.2z M2594.3,12520.3c4.9-47.8,8-88.5,6.7-89.8c-1.3-1.3-29.9-6.3-63-10.3
			c-33.1-4-87.1-12.5-120.2-18.8s-61.2-9.4-63-7.6c-4.5,5.4-37.5,170.7-34.9,173.4c3.6,4,107.3,22.8,168.9,31.3
			c30.8,4,59,8,62.6,8.9c3.6,0.9,13,0.9,20.1,0.9l13.4-0.9L2594.3,12520.3z M3273.2,12596.3c64.4-9.4,149.7-25.5,152.8-28.6
			c2.2-2.2-32.2-171.6-35.8-175.2c-0.9-0.9-29,3.1-61.7,8.9c-33.1,6.3-87.1,14.7-120.2,18.8c-33.1,4-61.7,8.9-63,10.3
			c-1.8,1.3,0.4,38.9,5.4,83.1c4.5,44.2,8,84,8,88.9C3159.2,12611.9,3168.6,12611.5,3273.2,12596.3z M2307.9,12555.2
			c7.2-31.3,33.5-158.7,33.5-162.7c0-2.7-30.8-12.5-67.9-21.9c-37.5-8.9-92.1-23.7-121.1-32.6c-28.6-8.5-53.2-14.7-53.6-13.9
			c-0.4,0.9-13,38-27.3,82.2c-14.3,44.2-27.3,82.7-28.2,85.4c-1.8,5.4,71.5,28.2,179.7,55.9
			C2302.9,12567.7,2304.7,12567.7,2307.9,12555.2z M3530.1,12545.4c85.8-21.9,164-44.7,168.5-49.2c3.1-2.7-46.5-163.1-52.3-169.4
			c-1.8-1.8-25.9,3.1-54.1,11.6s-81.8,23.2-118.9,32.6c-39.8,9.4-68.4,18.8-68.4,21.9c0,6.7,30.4,158.7,33.5,166.7
			C3441.2,12567.7,3444.3,12566.8,3530.1,12545.4z M2059.4,12408.2c15.2-45.6,27.3-84.9,27.3-87.1c0-2.2-14.7-8.9-32.6-14.3
			c-17.4-5.8-70.2-25.9-116.6-44.2c-46-18.3-84.9-32.6-85.4-31.7c-1.3,1.3-44.2,97.4-65.2,145.2l-8,18.8l21,9.8
			c47.8,21.5,229.3,89.8,231.5,87.1C2031.7,12491.7,2044.2,12453.7,2059.4,12408.2z M3863.1,12438.5c34.4-13.4,72-29,83.1-34l21-9.4
			l-35.8-79.1c-19.7-43.8-36.6-80.9-38.4-82.7c-1.8-1.8-39.3,11.6-83.6,29c-44.2,17.9-96.1,37.1-115.3,43.3
			c-18.8,6.3-34.4,13.4-34.4,15.6c0,3.6,44.7,148.4,51.4,166.2C3713.4,12494,3762.5,12477.9,3863.1,12438.5z M3065.4,12430.5
			c247.1-17.9,507.7-78.2,748.6-174.3c84.5-33.5,259.2-119.8,335.2-165.4c191.7-114.4,343.2-232.8,501-390.1
			c197.5-197.5,342.3-397.3,466.1-641.8c244.5-482.2,325.8-1022.1,235.1-1561.5c-133.2-791.9-652.9-1482.4-1380.9-1835.4
			c-424.6-205.6-889.3-287.4-1359.9-238.6c-847.8,88-1599,606.5-1982.5,1369.8c-405.8,806.7-349.5,1763,147.5,2516.5
			c92.5,140.8,193.1,262.8,320.9,391c203.8,203.3,402.7,346.8,659.6,474.6c324.9,162.2,651.1,244.5,1036.8,261.9
			C2842.8,12439.4,2991.6,12435.9,3065.4,12430.5z M1805.1,12308c20.6-45.6,36.2-83.6,35.3-84.5c-0.9-0.9-26.8-13.9-57.7-28.6
			c-30.8-14.3-74.6-36.6-97.4-49.2l-41.1-22.3l-21.5,36.2c-70.6,119.8-70.6,119.8-60.8,126.9c7.2,5.4,201.6,104.1,205.1,104.1
			C1767.5,12390.7,1785,12353.6,1805.1,12308z M4093.7,12334.4c45.6-23.2,86.3-44.7,90.7-47.8c7.6-5.8,5.4-11.2-35.3-81.8
			c-24.1-41.6-44.2-76.4-45.1-77.3c-2.2-2.7-198,95.2-198.4,98.8c0,1.8,12.5,30.8,27.3,64.8c15.2,34,31.3,70.2,35.8,80.4l8,18.8
			l17-6.7C4003,12379.6,4048.1,12357.7,4093.7,12334.4z M1522.6,12191.4c15.6-26.8,35.3-61.2,43.8-76.4l15.6-27.3l-48.3-29.9
			c-26.4-16.5-67.9-44.2-92.5-61.2c-24.1-17-45.6-29.5-47.4-27.3c-9.4,10.3-102.8,140.3-102.8,143.5
			c0.4,7.2,190.8,131.8,198.4,129.2C1492.3,12241,1507,12218.2,1522.6,12191.4z M4314.9,12209.3c42.9-27.3,132.3-87.6,139.9-93.8
			c1.3-1.3-91.2-132.7-102.3-146.1c-1.8-2.2-23.2,10.3-47.4,27.3c-24.6,17-66.1,44.7-92.5,61.2c-26.4,16.5-47.8,31.7-46.9,34
			c5.4,15.6,87.1,151.5,91.2,151.5C4259.5,12243.2,4285.9,12228.1,4314.9,12209.3z M1333.2,12033.2c28.6-39.3,51.8-72.4,51.8-73.3
			c0-1.3-17.4-15.6-38.9-32.6c-50.1-38.4-136.3-110.4-143.9-119.3c-3.6-4-7.6-7.2-9.4-7.2c-4.5,0-120.7,129.6-120.7,134.5
			c0,7.2,197.1,169.4,206,169.4C1280,12104.7,1304.6,12072.5,1333.2,12033.2z M4529,12059.1c62.6-48.7,145.2-118.9,145.2-122.9
			c0-1.8-82.7-96.5-112.2-128.3c-7.6-8.5-8.5-7.6-40.7,20.1c-40.7,36.2-71.1,60.8-120.7,99.2c-21.9,17-39.3,31.7-39.3,33.1
			c0,5.8,101,143.9,105,143.9C4469.1,12104.7,4497.3,12084.2,4529,12059.1z M1117.7,11864.7c30.4-34,56.8-64.4,58.5-67
			c2.2-3.6-27.7-37.1-84.9-94.3l-88.5-88.9l-64.4,58.5c-35.8,32.6-65.2,61.2-66.1,63.5c-1.8,4.9,179.7,189.5,186.4,189.5
			C1060.5,11925.9,1086.9,11898.2,1117.7,11864.7z M4783.3,11833.9c50.5-50.9,92.1-93.9,92.1-95.2c0-3.1-118-112.2-128.3-118
			c-4-2.7-32.2,22.8-94.3,84.9l-88.5,88.5l58.5,65.7c31.7,36.2,60.3,66.1,63,66.1C4689,11925.9,4732.3,11884.4,4783.3,11833.9z
			 M926.9,11668.5c34.4-30.8,64.4-57.7,66.6-59.9c1.8-2.2-9.8-19.2-25.9-37.5c-36.2-41.6-119.3-145.7-122-153.3
			c-1.3-3.1-4.5-5.8-6.7-5.8c-4.9,0-140.8,97.4-144.8,103.2c-4.5,7.6,156.9,209.6,167.1,209.6
			C863,11724.8,892.5,11699.4,926.9,11668.5z M4932.5,11673.4c22.8-27.3,59.9-72.8,82.2-101.9c33.5-44.2,39.3-54.1,34.4-58.5
			c-13.9-12.5-138.1-101-142.1-101c-2.2,0-4.9,2.7-6.3,5.8c-2.7,7.6-85.8,111.7-122,153.3l-29.9,34.4l39.8,36.2
			c21.9,19.7,50.9,46.5,64.4,59.4s27.7,23.2,31.3,22.3C4887.8,11723,4909.3,11700.3,4932.5,11673.4z M754.4,11455.8
			c38.4-27.3,71.5-50.9,73.3-52.7c2.2-1.8-10.3-23.2-26.8-47.4c-17-24.6-44.7-65.7-61.2-92.1c-17-26.8-31.3-48.3-32.2-48.3
			c-1.8,0-149.7,84.9-153.3,87.6c-0.9,0.9,0.4,7.2,3.6,13.9c6.7,14.7,122,189,125.1,189C683.8,11505.9,716,11483.5,754.4,11455.8z
			 M5124.3,11417.8c65.7-99.7,70.6-108.2,65.2-113.1c-1.8-2.2-35.8-22.3-75.1-44.7c-39.3-22.8-72.8-42-74.2-42.9
			c-1.8-0.9-17,19.7-33.5,46.5c-16.5,26.4-44.2,67.5-61.2,92.1c-16.5,24.1-29.5,45.1-28.2,46.5c8.9,8.5,139.9,103.2,143.5,103.2
			C5063.5,11505.9,5092.1,11466.1,5124.3,11417.8z M593.1,11199.3c41.1-23.7,76-43.8,77.8-44.7c1.3-0.9-9.8-25.5-25.5-54.1
			c-15.6-29-38-73.3-49.6-98.3c-11.6-25.5-22.3-46-24.1-46c-4.5,0-157.8,67.5-161.8,71.1c-5.4,4.5,99.2,215,106.8,215
			C517.6,11242.2,552,11223,593.1,11199.3z M5285.6,11140.3c27.7-55,50.1-102.8,49.2-106.8c-0.9-5.4-125.1-65.2-155.1-75.1
			c-6.3-1.8-12.1,6.7-29,43.4c-11.6,25.5-34,70.2-50.1,99.7c-16.1,29.5-27.3,54.1-25.5,55c1.8,0.4,35.8,20.1,75.1,43.4
			c39.3,22.8,74.6,41.6,78.2,41.1C5232.4,11240.4,5256.1,11197.9,5285.6,11140.3z M566.3,10944.5c0.9-0.4-13.4-38.9-31.7-85.4
			c-18.3-46-38-98.8-43.8-116.2c-5.8-17.9-13-32.6-15.6-32.6s-42.5,12.1-88,26.8l-83.1,26.8l20.1,57.2
			c20.1,56.8,51.4,136.8,68.8,176.1l8.9,20.6l81.8-36.2C528.3,10962,565.8,10945,566.3,10944.5z M5365.1,10970
			c23.7-55.4,73.3-189.9,73.3-198.9c0-4.5-26.8-15.2-81.8-33.5c-44.7-15.2-83.6-27.3-85.8-27.3c-2.7,0-9.4,14.7-15.2,32.6
			c-5.8,17.4-25.5,70.2-43.8,117.1c-18.3,46.5-31.7,85.4-29.5,86.3c1.8,0.4,38,17,79.5,36.6c42,19.2,77.8,34.4,79.5,34
			C5343.7,11016.5,5354.4,10995.5,5365.1,10970z M5464.4,10691.6c25-85.4,53.2-200.2,49.2-200.2c-0.9,0-38.9-8-84-17.9
			c-45.1-9.8-84.9-17.9-87.6-17.9c-2.7,0-12.1,29.5-21.5,67c-8.9,36.6-23.7,90.3-32.2,118.9c-8.5,28.6-14.3,53.2-13,55
			c2.2,2.2,160.4,57.2,168,58.1C5444.7,10755.1,5454.5,10726.4,5464.4,10691.6z M387.9,10725.6c43.3-13.9,80.4-26.8,82.2-28.6
			c2.2-1.8-3.6-27.3-12.5-56.3c-8.9-29.5-23.2-83.1-32.2-120.2c-8.9-36.6-16.5-67.5-16.5-67.5c-0.9-1.8-172.1,36.6-174.7,39.3
			c-7.6,7.2,60.3,258.3,70.2,258.3C307.1,10750.6,344.6,10739.4,387.9,10725.6z M5527.4,10432.4c13.9-72,33.1-208.3,30.4-215.4
			c-1.8-4.5-106.8-18.3-172.5-22.3c-4.9-0.4-8.5,13.4-14.3,59.4c-4.5,32.6-13.4,88-19.7,122.5c-6.3,34.4-9.8,63.9-8,65.7
			c1.8,1.3,39.8,10.3,84,19.7c44.2,9.4,81.3,17.9,82.2,18.8C5515.8,10486.5,5518.9,10477.5,5527.4,10432.4z M320.5,10460.1
			c45.6-9.8,83.6-18.8,84.5-19.7c0.9-0.9-3.6-29.5-9.8-63.5s-14.7-88-18.8-119.8c-4-32.2-8.5-59.9-9.8-61.7
			c-2.7-2.7-175.2,13.4-178.8,17c-3.6,3.6,22.3,181,35.3,242.2c3.1,12.5,7.2,23.2,9.8,23.2C235.1,10478,274.4,10469.9,320.5,10460.1
			z M285.6,10189.3c42.9-4,79.1-8,80-8.9c0.9-0.4-0.9-27.7-3.6-60.3c-2.7-32.2-4.9-72.4-4.9-88.9s-1.3-39.3-2.7-50.9l-3.1-20.6H261
			h-90.7l1.8,39.3c4,85.8,11.6,195.3,13.4,198.4c1.3,2.2,6.7,2.7,12.1,1.3C202.9,10197.8,242.7,10193.3,285.6,10189.3z
			 M5563.6,10189.3c0-6.3,1.8-39.8,4-74.6c2.7-34.9,5.4-84,6.7-109l2.2-46h-90.7h-90.7l-3.1,20.6c-1.3,11.6-2.7,34.4-2.7,50.9
			s-2.2,56.8-4.9,88.9c-2.7,32.6-4.5,59.9-3.6,60.8c1.8,1.3,149.3,18.8,170.7,19.7C5561.8,10200.9,5563.6,10199.1,5563.6,10189.3z
			 M354.4,9867.5c1.3-11.6,2.7-34.4,2.7-50.9c0-16.5,2.2-56.8,4.9-88.9c2.7-32.6,4.5-59.9,3.6-60.8c-2.2-1.8-178.8-21-180.6-19.2
			c-1.3,1.3-9.4,126-13,201.6l-1.8,38.9H261h90.3L354.4,9867.5z M5574.7,9849.2c-7.6-132.3-12.1-196.2-14.7-198.4
			c-1.8-1.3-42.9,1.3-92.1,6.3l-88.9,9.4l3.1,29c1.3,16.5,3.6,53.6,4.9,83.1c1.3,29.5,3.6,66.1,4.9,81.8l2.7,27.7h91.2h91.2
			L5574.7,9849.2z M375.9,9593.1c4-32.6,13-87.6,19.2-122s9.8-63.9,8-65.7c-5.4-4.5-170.7-37.5-173.8-34.9
			c-6.7,6.7-44.7,248-40.7,259.7c0.9,3.6,31.3,8.5,86.3,14.7c46.5,5.4,86.3,9.4,88.9,8.5C366.1,9653,371.4,9626.2,375.9,9593.1z
			 M5483.1,9644c40.7-4,74.6-8,75.5-8.9c4.5-4.5-34.9-257.9-41.6-264.1c-1.8-2.2-172.5,33.1-175.6,36.2c-0.9,0.9,3.6,28.6,9.4,62.1
			c6.3,33.5,14.7,86.7,18.8,118c8.9,72.8,7.6,69.3,25,66.6C5402.7,9652.5,5442.5,9648.1,5483.1,9644z M426.4,9324.1
			c9.4-37.5,23.7-91.2,32.2-119.3c8.5-27.7,13.9-52.3,11.6-54.1c-4.5-4.5-156-53.6-164.5-53.6c-4,0-10.3,13.9-17.4,37.1
			c-17.4,55.9-57.7,217.6-55,220.8c3.1,2.7,152.8,35.8,166.7,36.6C409,9392,411.2,9385.7,426.4,9324.1z M5415.2,9378.6
			c33.5-7.2,68.8-14.3,78.2-16.1c9.4-1.3,18.3-5.4,19.2-8c3.6-9.4-59-248-67-256.1c-2.7-2.7-163.6,47.4-169.4,52.3
			c-2.2,1.8,3.1,26.4,11.6,54.1c8.5,28.2,22.8,81.8,32.2,119.3c14.3,58.5,17.9,67.9,25.5,67.9
			C5350.4,9392,5381.7,9386.2,5415.2,9378.6z M5362.5,9110c40.7-12.5,75.1-24.1,76.9-25.9c5.8-5.4-88-250.7-96.5-250.7
			c-4.9,0-156,66.6-160.4,71.1c-1.8,1.8,7.6,29,21,61.2c13,31.7,32.2,81.8,42.5,111.3c10.3,29.5,19.7,56.3,20.6,59
			c1.3,4,4.9,4.5,12.1,1.3C5284.3,9135,5321.8,9122.9,5362.5,9110z M490.7,9104.6c5.8-17.4,25.5-70.2,43.8-116.2
			c18.3-46.5,32.6-84.9,31.7-85.4c-4.5-3.1-154.2-69.3-159.1-70.6c-7.2-1.8-30.4,51.4-72.8,166.2c-20.6,56.3-28.6,83.1-25,84.9
			c24.1,8.9,158.7,52.7,164,53.2C477.8,9137.3,483.6,9126.5,490.7,9104.6z M603.8,8830.2c16.5-34,38.9-78.2,50.1-98.3l20.1-37.1
			l-41.1-23.7c-118.4-69.3-115.3-67.9-122.5-58.5c-8.5,11.2-104.6,203.8-102.8,206c3.1,2.7,157.8,72.4,161.8,72.4
			C572.1,8891.5,587.7,8863.7,603.8,8830.2z M5257,8857.5c42-18.8,77.8-35.3,80-37.1c3.1-3.1-87.1-189.5-100.6-207.4
			c-5.8-8-10.7-5.8-84.9,37.1l-78.7,45.1l20.1,36.6c10.7,20.1,33.1,64.4,49.6,98.3c16.1,33.5,31.3,61.2,33.5,61.2
			C5178.3,8891.5,5214.5,8876.3,5257,8857.5z M769.2,8540.6c32.6-49.2,59.4-90.7,59.4-92.5c0-3.6-139.4-106.4-144.4-106.4
			c-1.8,0-27.7,36.6-57.2,81.8c-71.1,107.3-75.5,114.4-70.2,119.8c7.2,7.2,146.1,88,149.7,87.1
			C708.4,8630.5,736.5,8589.8,769.2,8540.6z M5115.8,8589.3c41.1-23.7,75.5-44.2,76.9-45.1c3.1-3.1-14.7-32.6-71.1-117.5
			c-28.6-42.9-53.2-80-55-82.2c-1.8-2.7-101.4,64.8-149.7,101.9c-1.3,0.9,121.1,185.9,122.9,185.9
			C5040.7,8632.2,5075.1,8613,5115.8,8589.3z M4999.1,8373.9c29.9-21.5,54.5-40.7,55-42.5c0-8-152.4-198.4-165.8-206.5
			c-3.6-2.2-36.6,25.5-133.2,112.2c-4.9,4.5-0.9,11.2,22.8,38.4c33.1,38,92.5,111.7,114.9,143l15.2,21.5l18.3-13.9
			C4936.6,8418.6,4969.2,8395.4,4999.1,8373.9z M855.4,8416.4c19.7-27.7,79.5-102.8,113.1-140.8l29-33.1l-10.7-10.3
			c-34.4-33.1-121.6-109.5-124.7-109.5c-8.5,0-167.6,195.7-167.6,206c0,4.9,136.3,106.4,143,106.4
			C840.2,8435.2,847.8,8427.1,855.4,8416.4z M4849.9,8138.4c13.9-13,25.5-25,25.5-27.7c0-6.3-181.9-186.8-188.1-186.8
			c-2.7,0-31.7,29-63.9,64.8l-59.4,64.8l89.8,89.8l89.8,89.8l40.2-35.8C4805.6,8177.7,4835.6,8150.9,4849.9,8138.4z M1094.5,8142
			l88-88.5l-58.5-64.8c-32.2-35.8-60.8-64.8-64.4-64.8c-5.8,0-188.6,180.1-188.6,185.9c0,3.6,128.7,120.2,132.3,120.2
			C1004.7,8230,1045.8,8190.3,1094.5,8142z M1226.8,8017.8c31.7-28.2,132.3-108.6,152.8-122.9c9.4-6.7,8.9-7.6-42.9-79.1
			c-28.6-39.8-54.1-72.4-55.9-72.4c-10.3-0.9-206.5,159.1-206.5,168c0,4,114,135.4,117.5,135.4
			C1192.8,8046.8,1208.5,8033.8,1226.8,8017.8z M4616.1,7980.2c31.7-35.8,58.1-66.1,58.1-67.9c0-6.7-190.8-163.1-205.1-168.5
			c-4.5-1.3-107.7,138.5-107.7,145.7c0,2.2,2.7,5.4,5.8,6.7c8,3.1,134.1,104.1,161.8,129.6c12.5,11.2,23.7,20.1,25.5,19.7
			C4556.7,8045,4584,8015.5,4616.1,7980.2z M1487.8,7821.6c47.8-31.7,88.9-59,90.7-60.8c2.7-2.2-72.8-140.8-84.9-156.4
			c-3.1-3.6-33.5,14.7-117.5,70.6c-45.6,30.4-83.6,55.9-84,56.8c-2.2,2.2,103.7,149.7,106.4,148.4
			C1399.7,7879.7,1440,7853.3,1487.8,7821.6z M4403.4,7808.2c28.6-38.9,51.8-72,51.8-73.7c0-2.7-144.8-99.7-180.6-121.1
			c-17-10.3-17.4-10.3-23.7-1.8c-8,10.7-81.3,138.1-82.7,143.9c-1.3,4.5,174.3,125.1,180.6,124.2
			C4350.7,7879.2,4375.2,7847.5,4403.4,7808.2z M1779.6,7654.9c33.5-16.5,61.2-31.3,61.2-33.5c0-4.5-67-156.9-71.1-161.3
			c-3.1-3.1-190.8,88-207.8,101c-8.5,6.3-7.6,8,19.2,55c15.6,26.8,36.2,62.1,45.6,78.7l17.4,29.9l37.1-20.1
			C1701.4,7693.3,1745.7,7671,1779.6,7654.9z M4149.6,7644.1c41.1-72,43.4-76.9,35.8-82.7c-10.7-7.6-148.4-77.8-182.3-92.5l-25-11.2
			l-37.1,82.2c-20.1,45.6-35.8,83.1-34.9,84c0.9,0.9,40.2,20.6,87.6,43.8c46.9,23.7,90.3,46,95.6,49.6c5.4,4,11.6,6.3,13.4,5.4
			C4104.4,7721.5,4125.4,7686.1,4149.6,7644.1z M1931.6,7587.4c39.3-15.6,90.3-35.3,114-43.3c24.1-8.5,42.9-16.5,42.9-18.8
			c-0.9-3.6-49.2-154.6-53.2-165.4c-1.3-4-15.6-0.9-52.3,12.1c-85.4,30.4-200.2,77.8-200.2,82.7c0,4.5,63.5,148.8,69.7,159.5
			c1.3,2.2,4,3.6,5.4,2.7C1859.6,7616,1892.7,7602.6,1931.6,7587.4z M3929.2,7538.7c19.2-43.8,35.3-81.3,35.3-83.6
			c0-7.2-226.6-96.5-244.5-96.5c-4,0-15.2,28.2-33.1,81.8c-15.2,44.7-27.3,83.6-27.3,85.8c0,2.7,17.4,10.3,39.3,17.4
			c21.5,7.2,72,26.4,112.6,42.9c40.7,16.5,76,30.4,78.2,30.8C3892.6,7617.3,3910,7582,3929.2,7538.7z M2148.8,7511
			c35.3-11.2,125.1-34.4,180.6-46.9c7.2-1.8,12.1-5.8,12.1-10.3c0-12.5-32.6-164.5-36.2-168.5c-6.3-7.2-258.8,60.3-258.8,68.8
			c0,8,54.1,169.8,56.8,169.8C2104.5,7523.9,2125.1,7518.1,2148.8,7511z M3674.9,7441.2c14.7-45.1,26.8-84,26.8-85.8
			c0.4-1.8-16.5-8.9-37.5-16.1c-48.7-15.6-219-58.5-221.7-55.4c-3.1,3.1-38.9,173.4-36.6,175.6c1.3,0.9,38,10.7,82.2,21.9
			c43.8,10.7,95.2,24.6,113.5,30.8c18.3,5.8,36.6,10.7,40.2,11.2C3646.8,7523.5,3655.7,7501.1,3674.9,7441.2z M2461.1,7439
			c42.5-7.2,92.5-14.3,110.8-16.1l34-3.1l-2.7-18.3c-1.3-10.3-5.8-50.5-9.8-89.8c-4-39.3-8-72.4-8.5-73.3
			c-4.5-4.5-258.3,35.3-264.6,41.6c-2.2,1.8,11.2,69.7,28.6,147.5l6.7,30.4l14.3-3.1C2377.6,7453.3,2418.7,7446.2,2461.1,7439z
			 M3410.4,7376.4c8.9-42.9,16.5-82.7,17-88c0-8-3.6-10.3-23.2-14.3c-98.8-19.7-235.5-38.9-240.4-33.1c-5.8,6.7-21,176.5-16.1,177.9
			c2.7,0.9,37.1,5.8,76.4,11.2c39.3,5.4,89.8,13.4,111.7,17.9c22.3,4.5,44.2,7.6,49.2,7.6
			C3392.5,7454.6,3395.6,7444.4,3410.4,7376.4z M2757,7407.7c42.9-2.2,78.7-4.5,79.5-4.5c0.4,0,0.9-41.1,0.9-91.6v-91.2l-38.9,2.2
			c-123.8,6.7-196.2,12.1-198.4,14.3c-1.8,1.8,1.3,42.9,6.3,92.1l9.4,88.5l31.7-2.7C2664.5,7413.5,2714.1,7410,2757,7407.7z
			 M3132.4,7413.5c0-2.2,4-40.7,8.9-86.3c4.9-45.6,8.9-84.9,8.9-87.6c0-4.5-20.6-6.3-206.5-17.4l-34.9-1.8v90.7v91.2l32.6,2.7
			c44.2,3.6,148.8,9.8,172.1,10.7C3123.9,7416.2,3132.4,7415.3,3132.4,7413.5z"/>
	</g>
	<ellipse id="XMLID_29_" class="st1" cx="292.9" cy="284.3" rx="5.6" ry="5.7"/>
</g>
<g id="Layer_6">
	<g id="XMLID_88_">
		<ellipse id="XMLID_172_" class="st0" cx="292.9" cy="284.3" rx="213.6" ry="214.7"/>
		<path id="XMLID_139_" d="M465.7,167.6l0.2,0.4c0.4,0.7,0.9,1.1,1.4,1.2s1.1,0,1.8-0.4c0.4-0.2,0.7-0.4,1.1-0.6s0.9-0.5,1.6-1
			c0.7-0.4,1.5-0.9,2.3-1.4c0.9-0.5,1.4-0.9,1.7-1c0.3-0.3,0.5-0.5,0.7-0.7s0.2-0.4,0.3-0.7c0.1-0.5-0.1-1-0.4-1.7l-0.2-0.4l0.3-0.2
			l4.3,7l-0.3,0.2l-0.1-0.2c-0.4-0.7-0.9-1.1-1.4-1.2s-1.1,0-1.8,0.4l-3,1.8l3.6,6l3-1.8c0.7-0.4,1.1-0.9,1.2-1.4
			c0.1-0.5,0-1.1-0.4-1.8l-0.1-0.2l0.3-0.2l4.2,6.9l-0.3,0.2l-0.2-0.3c-0.4-0.7-0.9-1.1-1.4-1.2c-0.5-0.1-1.1,0-1.8,0.4l-6.4,3.9
			c-0.7,0.4-1.1,0.9-1.2,1.4c-0.1,0.5,0,1.1,0.4,1.8l0.2,0.3l-0.3,0.2l-4.2-6.9l0.3-0.2l0.1,0.2c0.4,0.7,0.9,1.1,1.4,1.2
			c0.5,0.1,1.1,0,1.8-0.4l3.1-1.9l-3.6-6l-3.1,1.9c-0.7,0.4-1.1,0.9-1.2,1.4c-0.1,0.5,0,1.1,0.4,1.8l0.1,0.2l-0.3,0.2l-4.2-7
			L465.7,167.6z"/>
		<path id="XMLID_141_" d="M490.5,185.1c0.5,1.1,0.9,2.2,1,3.2c0.1,1.1,0,2.1-0.3,3.1c-0.3,0.8-0.7,1.6-1.2,2.2
			c-0.5,0.7-1.2,1.2-1.9,1.5c-1.1,0.5-2.2,0.7-3.5,0.6s-2.4-0.6-3.4-1.4c-1.1-0.8-1.9-1.8-2.5-3.1c-0.5-1-0.8-1.9-0.9-2.9
			c-0.1-1-0.1-2,0.2-2.9c0.2-0.9,0.6-1.8,1.2-2.5c0.6-0.7,1.2-1.3,2.1-1.7c1.1-0.5,2.2-0.7,3.5-0.6c1.2,0.2,2.4,0.6,3.5,1.4
			C489,182.8,489.9,183.8,490.5,185.1z M490.3,185.4c-0.3-0.5-0.6-0.9-1-1.3s-0.8-0.6-1.3-0.8c-0.5-0.2-1.1-0.2-1.7-0.2
			c-0.6,0-1.2,0.1-1.9,0.3c-0.6,0.2-1.3,0.4-2,0.8c-0.9,0.4-1.6,0.9-2.2,1.4c-0.6,0.5-1.1,1.1-1.4,1.7c-0.3,0.6-0.5,1.2-0.5,1.8
			c0,0.6,0.1,1.2,0.4,1.8c0.4,0.8,1,1.4,1.8,1.8c0.8,0.4,1.7,0.5,2.7,0.4s2.1-0.5,3.3-1.1c0.8-0.4,1.5-0.8,2-1.3s1-1.1,1.4-1.6
			c0.3-0.6,0.5-1.2,0.6-1.8c0-0.3,0-0.6,0-1S490.4,185.7,490.3,185.4z"/>
		<path id="XMLID_144_" d="M494.7,194.4l3.3,8.4l-0.3,0.1l-0.4-1c-0.3-0.7-0.7-1.2-1.2-1.4s-1.1-0.2-1.9,0.1l-6.1,2.4
			c-0.7,0.3-1.2,0.7-1.6,1.2c-0.4,0.5-0.6,1.1-0.6,1.8c0,0.7,0.1,1.5,0.4,2.3c0.3,0.7,0.7,1.4,1.1,1.9c0.5,0.5,0.9,0.9,1.5,1.2
			c1,0.4,2.1,0.4,3.4-0.1l4.3-1.7c1.4-0.5,2.2-1.3,2.3-2.3c0.1-0.3,0.1-0.6,0-0.8c0-0.3-0.2-0.7-0.3-1.1l0.3-0.1l2.3,5.8l-0.3,0.1
			c-0.2-0.4-0.3-0.6-0.5-0.8c-0.2-0.2-0.4-0.4-0.6-0.5c-0.4-0.2-0.8-0.4-1.3-0.4c-0.5,0-1,0.1-1.6,0.3l-4.8,1.9
			c-1.3,0.5-2.4,0.5-3.3,0.1c-0.5-0.2-0.9-0.5-1.3-0.9c-0.7-0.8-1.3-1.8-1.8-3.1c-0.4-0.9-0.6-1.8-0.7-2.7c-0.1-0.8-0.1-1.6,0-2.2
			c0.3-1.2,1-2,2.2-2.5l5.9-2.3c1.5-0.6,1.9-1.6,1.3-3.1l-0.2-0.5L494.7,194.4z"/>
		<path id="XMLID_146_" d="M497.9,222.5l-0.8-2.8l-3.5,1c-0.8,0.2-1.3,0.6-1.5,1.1c-0.3,0.5-0.3,1.1-0.1,1.9l0.1,0.4l-0.3,0.1
			l-2.3-7.8l0.3-0.1l0.1,0.3c0.2,0.8,0.6,1.3,1.1,1.5c0.5,0.3,1.1,0.3,1.9,0l7.2-2.1c0.8-0.2,1.3-0.6,1.5-1.1c0.3-0.5,0.3-1.1,0-1.9
			l-0.1-0.3l0.3-0.1l2.9,9.6c0.4,1.3,0.6,2.4,0.6,3.2c0,0.8-0.1,1.5-0.4,2.1c-0.2,0.3-0.4,0.6-0.7,0.9c-0.3,0.3-0.6,0.4-1,0.5
			c-0.9,0.3-1.8,0-2.7-0.8c-0.3-0.3-0.6-0.7-1-1.3c-0.3-0.6-0.6-1.2-0.9-1.8c-0.2-0.5-0.4-1.2-0.7-2.1l0,0c-0.2,0.6-0.3,1.1-0.4,1.5
			s-0.1,0.9-0.2,1.3c0,0.4,0,0.9,0,1.4l-0.4,0.4c-0.2,0.3-0.4,0.5-0.5,0.6s-0.2,0.3-0.4,0.5c-0.4,0.5-0.7,0.9-1,1.3
			c-0.3,0.4-0.5,0.7-0.6,1c-0.1,0.5-0.1,1.1,0.1,1.8l0.1,0.3l-0.3,0.1l-1.4-4.7L497.9,222.5z M497.4,219.6l1.1,3.5
			c0.2,0.8,0.6,1.5,0.9,2s0.8,0.8,1.3,0.9c0.5,0.1,1.1,0.1,1.7-0.1c1.9-0.6,2.5-2,1.8-4.4l-1.1-3.6L497.4,219.6z"/>
		<path id="XMLID_149_" d="M509.4,242.8l0.1,0.3l-4.3,0.9l-0.1-0.3c1-0.6,1.7-1.2,2.2-1.8c0.3-0.4,0.6-1,0.8-1.6
			c0.2-0.6,0.3-1.2,0.4-1.9c0-0.7,0-1.4-0.2-2c-0.1-0.5-0.3-0.9-0.5-1.3s-0.5-0.7-0.8-0.9c-0.2-0.2-0.5-0.3-0.8-0.3s-0.5-0.1-0.7,0
			c-0.4,0.1-0.8,0.3-1,0.7c-0.1,0.2-0.2,0.4-0.3,0.7s-0.1,0.7-0.2,1.2c0,0.5-0.1,1.1-0.1,2c0,0.2,0,0.4,0,0.5l0,0.5l0,0.7
			c-0.1,1.3-0.1,2.2-0.3,2.8c-0.1,0.6-0.3,1.1-0.6,1.6c-0.2,0.4-0.5,0.7-0.8,0.9c-0.3,0.2-0.7,0.4-1.2,0.5c-0.4,0.1-0.9,0.1-1.4,0
			c-0.5-0.1-0.9-0.3-1.3-0.6c-0.6-0.3-1-0.8-1.4-1.4s-0.6-1.3-0.8-2.2c-0.1-0.6-0.2-1.2-0.2-1.7c0-0.5,0.1-1.2,0.2-2
			c0.1-0.5,0.1-0.9,0.2-1.2c0-0.3,0-0.5,0-0.7c-0.1-0.4-0.3-0.8-0.6-1s-0.7-0.4-1.1-0.4l-0.1-0.3l5.9-1.3l0.1,0.3
			c-1,0.4-1.9,1-2.6,1.9c-0.4,0.5-0.7,1.2-1,1.9s-0.5,1.5-0.5,2.3s0,1.5,0.1,2.2c0.1,0.6,0.3,1.1,0.6,1.5c0.3,0.4,0.6,0.8,1.1,1
			c0.4,0.2,0.8,0.3,1.3,0.2c0.5-0.1,0.8-0.4,1.1-0.8c0.1-0.2,0.2-0.5,0.3-0.8c0.1-0.3,0.1-0.7,0.2-1.1s0.1-1.1,0.1-1.9l0.1-1
			c0.1-1.5,0.2-2.5,0.3-3.1c0.1-0.7,0.2-1.2,0.4-1.6s0.4-0.8,0.7-1.1c0.4-0.5,0.9-0.8,1.5-0.9c0.7-0.2,1.4-0.1,2,0.2
			c0.6,0.3,1.2,0.8,1.7,1.5c0.5,0.7,0.8,1.5,1,2.4c0.3,1.4,0.2,2.9-0.2,4.5c-0.1,0.6-0.2,1-0.2,1.1
			C508.3,242.5,508.7,242.8,509.4,242.8z"/>
		<path id="XMLID_151_" d="M511.2,251.8l1.7,15.1l-6.5,0.7l-0.1-0.3c1.6-0.3,3-1,4-1.9c1.2-1.1,1.8-2.5,1.6-4l-0.1-0.7l-9.8,1.1
			c-1.6,0.2-2.3,1-2.1,2.6l0.2,1.9l-0.4,0l-1.3-11.2l0.4,0l0.2,1.9c0.2,1.6,1,2.3,2.6,2.1l9.8-1.1l-0.1-0.8c-0.2-1.5-1-2.7-2.6-3.5
			c-0.8-0.4-1.6-0.7-2.6-0.8c-0.3,0-0.9-0.1-1.5-0.1l0-0.3L511.2,251.8z"/>
		<path id="XMLID_153_" d="M513.6,277c0,1.2-0.1,2.3-0.5,3.3s-0.9,1.9-1.6,2.7c-0.6,0.6-1.3,1.1-2.1,1.5s-1.6,0.6-2.4,0.6
			c-1.2,0-2.4-0.3-3.4-0.9c-1-0.7-1.9-1.6-2.5-2.7c-0.6-1.2-1-2.5-1-3.9c0-1.1,0.1-2.1,0.4-3.1c0.3-1,0.8-1.8,1.4-2.6
			c0.6-0.7,1.3-1.3,2.1-1.8s1.7-0.7,2.6-0.7c1.2,0,2.3,0.3,3.4,0.9c1.1,0.7,1.9,1.6,2.6,2.7C513.2,274.4,513.6,275.6,513.6,277z
			 M513.3,277.2c0-0.6-0.1-1.1-0.3-1.6c-0.2-0.5-0.5-0.9-0.9-1.2c-0.4-0.4-0.9-0.7-1.4-0.9c-0.5-0.2-1.1-0.4-1.8-0.5
			c-0.7-0.1-1.4-0.2-2.1-0.1c-1,0-1.8,0.2-2.6,0.4c-0.8,0.2-1.4,0.6-2,1c-0.6,0.4-1,0.9-1.2,1.5c-0.3,0.6-0.4,1.2-0.4,1.9
			c0,0.9,0.3,1.7,0.9,2.4c0.5,0.7,1.3,1.2,2.3,1.5c1,0.3,2.1,0.5,3.5,0.4c0.9,0,1.7-0.2,2.4-0.4c0.7-0.2,1.4-0.5,1.9-0.9
			s1-0.9,1.3-1.4c0.2-0.3,0.3-0.6,0.4-0.9C513.2,277.9,513.3,277.6,513.3,277.2z"/>
		<path id="XMLID_156_" d="M513.4,293.3l-0.6,8.8l-0.3,0l0.1-0.9c0.1-0.8-0.1-1.4-0.4-1.8c-0.4-0.4-0.9-0.6-1.7-0.7l-9.9-0.7
			l-0.2,3.3c0,0.7,0.1,1.3,0.3,1.9c0.3,0.6,0.6,1.1,1.1,1.6c0.3,0.3,0.6,0.5,0.9,0.8s0.7,0.4,1.1,0.6c0.4,0.2,1,0.4,1.5,0.6l0,0.3
			l-5.7-0.4l1-14.4l0.3,0l0,0.5c-0.1,1.6,0.6,2.4,2.2,2.5l7.5,0.5c1.6,0.1,2.4-0.6,2.5-2.2l0-0.5L513.4,293.3z"/>
		<path id="XMLID_158_" d="M511.3,317.6c-0.2,1.2-0.5,2.3-1.1,3.2c-0.5,0.9-1.2,1.7-2.1,2.3c-0.7,0.5-1.5,0.9-2.3,1.1
			c-0.8,0.2-1.6,0.3-2.4,0.2c-1.2-0.2-2.3-0.7-3.2-1.5c-0.9-0.8-1.6-1.9-2-3.1c-0.4-1.3-0.5-2.6-0.3-4c0.2-1.1,0.5-2,1-2.9
			c0.5-0.9,1.1-1.6,1.8-2.3c0.7-0.6,1.5-1.1,2.4-1.4c0.9-0.3,1.8-0.3,2.7-0.2c1.2,0.2,2.2,0.7,3.2,1.5c0.9,0.8,1.6,1.9,2,3.1
			C511.3,314.9,511.5,316.2,511.3,317.6z M510.9,317.8c0.1-0.6,0.1-1.1-0.1-1.6c-0.1-0.5-0.3-1-0.6-1.4c-0.3-0.4-0.7-0.8-1.2-1.1
			c-0.5-0.3-1.1-0.6-1.7-0.9c-0.6-0.2-1.3-0.4-2.1-0.5c-0.9-0.1-1.8-0.2-2.6-0.1c-0.8,0.1-1.5,0.3-2.1,0.6s-1.1,0.7-1.5,1.2
			s-0.6,1.1-0.7,1.8c-0.1,0.9,0,1.7,0.4,2.5c0.4,0.7,1.1,1.4,2,1.9c0.9,0.5,2,0.9,3.3,1c0.9,0.1,1.7,0.2,2.4,0.1
			c0.8-0.1,1.5-0.3,2.1-0.6s1.1-0.7,1.5-1.1c0.2-0.2,0.4-0.5,0.5-0.8C510.7,318.4,510.8,318.1,510.9,317.8z"/>
		<path id="XMLID_161_" d="M509.6,327.4l-1.6,6.5l-0.3-0.1c0.1-0.5,0.2-0.9,0.1-1.2c-0.1-0.3-0.3-0.5-0.6-0.5
			c-0.3-0.1-0.6-0.1-0.9-0.1l-8,0.8l5.8,4.1c0.7-0.1,1.2-0.1,1.5-0.2c0.3-0.1,0.6-0.2,0.9-0.4c0.3-0.2,0.5-0.3,0.6-0.6
			s0.3-0.5,0.3-0.8l0.3,0.1l-1.7,6.8l-0.3-0.1l0.1-0.3c0.1-0.5,0.1-1,0-1.3c-0.1-0.3-0.3-0.6-0.7-0.6c-0.2-0.1-0.5-0.1-0.7,0
			l-8.1,0.9l6.1,4.3c0.3,0.2,0.6,0.4,0.9,0.4c0.5,0.1,0.8,0,1.1-0.3c0.3-0.3,0.6-0.8,0.8-1.5l0.3,0.1l-1.2,5.1l-0.3-0.1
			c0.1-0.3,0.1-0.6,0-0.9c0-0.2-0.1-0.5-0.2-0.8c-0.3-0.6-0.8-1.2-1.6-1.8l-9.1-6.4l0.1-0.3l10.2-1.1L495,331l0.1-0.4l10.9-1.2
			c1-0.1,1.7-0.3,2.2-0.6s0.8-0.7,1-1.3l0.1-0.3L509.6,327.4z"/>
		<path id="XMLID_163_" d="M501.9,355.6l-5.4,14.2l-6.2-2.3l0.1-0.3c1.6,0.4,3.1,0.5,4.5,0.1c1.6-0.5,2.7-1.4,3.2-2.8l0.2-0.6
			l-9.3-3.5c-1.5-0.6-2.5-0.1-3,1.4l-0.7,1.8l-0.3-0.1l4-10.6l0.3,0.1l-0.7,1.8c-0.6,1.5-0.1,2.5,1.4,3l9.3,3.5l0.3-0.8
			c0.5-1.4,0.3-2.9-0.7-4.3c-0.5-0.7-1.2-1.3-2-1.9c-0.3-0.2-0.7-0.4-1.3-0.8l0.1-0.3L501.9,355.6z"/>
		<path id="XMLID_165_" d="M484.2,366.5l-0.1,0.3c-0.3,0.7-0.4,1.3-0.2,1.9c0.2,0.5,0.7,0.9,1.4,1.3c0.3,0.2,0.5,0.3,0.8,0.5
			c0.2,0.1,0.5,0.3,0.8,0.4c0.3,0.1,0.7,0.3,1.1,0.5c1.9,0.8,3.4,1.4,4.4,1.8c0.4,0.1,0.7,0.2,1,0.2s0.5-0.1,0.7-0.2
			c0.5-0.2,0.8-0.6,1.1-1.3l0.1-0.3l0.3,0.1l-3.3,7.4L492,379l0.1-0.3c0.3-0.7,0.4-1.3,0.2-1.9c-0.2-0.5-0.7-0.9-1.4-1.3l-6.9-3.1
			c-0.7-0.3-1.3-0.4-1.9-0.2s-0.9,0.7-1.3,1.4l-0.1,0.3l-0.3-0.1l3.3-7.4L484.2,366.5z"/>
		<path id="XMLID_167_" d="M491.7,380.7l-4,7.6c-0.7,1.2-1.4,2.2-2.2,3c-0.8,0.8-1.7,1.3-2.7,1.6c-0.9,0.3-1.7,0.4-2.6,0.3
			c-0.9-0.1-1.7-0.3-2.4-0.7c-0.8-0.4-1.5-1-2-1.7c-0.5-0.7-0.8-1.5-1-2.4s-0.2-1.8,0-2.8s0.5-2,1-2.9l4.3-8.1l0.3,0.2l-0.2,0.4
			c-0.4,0.7-0.5,1.3-0.3,1.8c0.2,0.5,0.6,1,1.3,1.3l6.7,3.5c0.7,0.4,1.3,0.5,1.8,0.3c0.5-0.2,1-0.6,1.3-1.3l0.2-0.4L491.7,380.7z
			 M488.8,385.5l-10.8-5.7l-1.2,2.2c-0.3,0.6-0.6,1.2-0.7,1.7s-0.2,0.9-0.3,1.3c0,0.4,0,0.8,0.2,1.2c0.4,1.4,1.6,2.6,3.5,3.6
			c0.6,0.3,1.3,0.6,1.9,0.8c0.6,0.2,1.2,0.3,1.7,0.3c0.5,0,1.1-0.1,1.5-0.2c0.4-0.1,0.8-0.3,1.1-0.6c0.3-0.3,0.7-0.6,1-1
			c0.3-0.4,0.6-0.9,0.9-1.5L488.8,385.5z"/>
		<path id="XMLID_170_" d="M482.7,397.5l-7.4,11.6l-4.2-2.7l0.1-0.2c0.9,0.3,1.6,0.4,2,0.5c0.5,0.1,1,0.1,1.5,0
			c0.6-0.1,1.1-0.3,1.5-0.5c0.7-0.5,1.3-1.2,1.9-2.1l1.4-2.2l-5.2-3.3l-0.4,0.6c-0.5,0.9-0.6,1.8-0.2,2.8c0.2,0.5,0.5,1,1,1.4
			c0.2,0.2,0.5,0.5,0.9,0.8l-0.2,0.3l-7.2-4.6l0.2-0.3c0.4,0.2,0.8,0.3,1.2,0.5c0.4,0.1,0.7,0.2,1,0.2s0.6,0,0.9,0
			c0.9-0.1,1.6-0.6,2.1-1.4l0.3-0.5l-4.9-3.1l-1.1,1.8c-0.3,0.5-0.6,1-0.8,1.5s-0.3,0.9-0.4,1.4c-0.1,0.4-0.1,0.9,0,1.4
			c0.1,0.8,0.4,1.5,0.9,2.2c0.3,0.4,0.7,0.9,1.2,1.5l-0.2,0.3l-4.5-2.9l7.6-11.9l0.3,0.2l-0.2,0.3c-0.8,1.3-0.6,2.4,0.7,3.3l6.4,4.1
			c0.7,0.4,1.3,0.6,1.8,0.5c0.5-0.1,1-0.5,1.4-1.2l0.2-0.3L482.7,397.5z"/>
	</g>
</g>
<g id="Layer_7">
	<g id="XMLID_4_">
		<ellipse id="XMLID_207_" class="st0" cx="292.5" cy="284.3" rx="213.6" ry="214.7"/>
		<path id="XMLID_91_" d="M124.8,408.2l-0.2-0.3c-0.4-0.7-0.9-1-1.5-1.2c-0.5-0.1-1.1,0.1-1.8,0.5c-0.4,0.2-0.7,0.5-1,0.7
			c-0.3,0.2-0.8,0.6-1.6,1c-0.7,0.5-1.4,1-2.3,1.5c-0.8,0.6-1.4,0.9-1.7,1.1c-0.3,0.3-0.5,0.5-0.7,0.7c-0.1,0.2-0.2,0.4-0.2,0.7
			c-0.1,0.5,0.1,1,0.5,1.7l0.2,0.4l-0.3,0.2l-4.5-6.8l0.3-0.2l0.2,0.2c0.4,0.7,0.9,1,1.5,1.2c0.5,0.1,1.1-0.1,1.8-0.5l2.9-1.9
			l-3.9-5.8l-2.9,1.9c-0.7,0.4-1.1,0.9-1.2,1.5c-0.1,0.5,0.1,1.1,0.5,1.8l0.1,0.2l-0.3,0.2l-4.5-6.7l0.3-0.2l0.2,0.3
			c0.4,0.7,0.9,1,1.5,1.1c0.5,0.1,1.1-0.1,1.8-0.5l6.3-4.2c0.7-0.4,1-0.9,1.1-1.5c0.1-0.5-0.1-1.1-0.5-1.8l-0.2-0.3l0.3-0.2l4.5,6.7
			l-0.3,0.2l-0.1-0.2c-0.4-0.7-0.9-1-1.5-1.2c-0.5-0.1-1.1,0.1-1.8,0.5l-3.1,2l3.9,5.8l3.1-2c0.7-0.4,1-0.9,1.1-1.5
			c0.1-0.5-0.1-1.1-0.5-1.8l-0.2-0.2l0.3-0.2l4.5,6.8L124.8,408.2z"/>
		<path id="XMLID_174_" d="M99.3,391.9c-0.6-1.1-1-2.1-1.1-3.2s-0.1-2.1,0.2-3.1c0.3-0.9,0.6-1.6,1.1-2.3s1.1-1.2,1.8-1.6
			c1.1-0.6,2.2-0.8,3.4-0.7c1.2,0.1,2.4,0.5,3.5,1.3c1.1,0.7,2,1.7,2.7,3c0.5,0.9,0.9,1.9,1,2.9s0.1,2,0,2.9
			c-0.2,0.9-0.6,1.8-1.1,2.5c-0.5,0.8-1.2,1.4-2,1.8c-1,0.6-2.2,0.8-3.4,0.7c-1.2-0.1-2.4-0.5-3.5-1.3
			C100.9,394.1,100,393.1,99.3,391.9z M99.5,391.5c0.3,0.5,0.6,0.9,1,1.3c0.4,0.3,0.9,0.6,1.3,0.7c0.5,0.1,1.1,0.2,1.7,0.2
			c0.6,0,1.2-0.1,1.9-0.3c0.6-0.2,1.3-0.5,2-0.9c0.8-0.5,1.5-1,2.1-1.5c0.6-0.6,1-1.2,1.3-1.8s0.5-1.2,0.4-1.9
			c0-0.6-0.2-1.2-0.5-1.8c-0.4-0.8-1.1-1.4-1.8-1.7c-0.8-0.3-1.7-0.4-2.7-0.3c-1,0.2-2.1,0.6-3.3,1.2c-0.8,0.4-1.4,0.9-2,1.4
			c-0.6,0.5-1,1.1-1.3,1.7c-0.3,0.6-0.5,1.2-0.5,1.8c0,0.3,0,0.6,0.1,1C99.3,390.9,99.4,391.2,99.5,391.5z"/>
		<path id="XMLID_177_" d="M94.7,382.8l-3.7-8.2l0.3-0.1l0.4,0.9c0.3,0.7,0.7,1.2,1.3,1.4c0.5,0.2,1.1,0.1,1.9-0.2l6-2.7
			c0.7-0.3,1.2-0.7,1.6-1.3c0.4-0.5,0.5-1.2,0.5-1.9c0-0.7-0.2-1.5-0.5-2.3c-0.3-0.7-0.7-1.3-1.2-1.9c-0.5-0.5-1-0.9-1.5-1.1
			c-1-0.4-2.1-0.3-3.3,0.3l-4.2,1.9c-1.4,0.6-2.1,1.4-2.2,2.4c0,0.3,0,0.6,0,0.8c0.1,0.3,0.2,0.6,0.4,1.1l-0.3,0.1l-2.6-5.7l0.3-0.1
			c0.2,0.3,0.4,0.6,0.5,0.8s0.4,0.3,0.6,0.5c0.4,0.2,0.8,0.3,1.3,0.3c0.5,0,1-0.1,1.5-0.4l4.7-2.1c1.3-0.6,2.4-0.6,3.3-0.3
			c0.5,0.2,1,0.5,1.3,0.9c0.7,0.8,1.4,1.8,1.9,3c0.4,0.9,0.7,1.8,0.8,2.6c0.2,0.8,0.2,1.6,0.1,2.2c-0.2,1.2-0.9,2.1-2.1,2.6L96,379
			c-1.4,0.6-1.8,1.7-1.2,3.1l0.2,0.5L94.7,382.8z"/>
		<path id="XMLID_179_" d="M90.3,354.8l0.9,2.8l3.4-1.2c0.7-0.3,1.2-0.6,1.5-1.1c0.2-0.5,0.2-1.1,0-1.9L96,353l0.3-0.1l2.7,7.7
			l-0.3,0.1l-0.1-0.3c-0.3-0.8-0.6-1.3-1.1-1.5c-0.5-0.2-1.1-0.2-1.9,0l-7.1,2.5c-0.8,0.3-1.3,0.6-1.5,1.1s-0.2,1.1,0,1.9l0.1,0.3
			l-0.3,0.1l-3.3-9.5c-0.4-1.3-0.7-2.3-0.8-3.1c-0.1-0.8,0-1.5,0.3-2.1c0.2-0.3,0.4-0.6,0.7-0.9c0.3-0.3,0.6-0.5,0.9-0.6
			c0.9-0.3,1.8-0.1,2.7,0.7c0.3,0.3,0.7,0.7,1,1.3c0.4,0.6,0.7,1.1,0.9,1.7c0.2,0.5,0.5,1.1,0.8,2.1l0,0c0.1-0.6,0.2-1.1,0.3-1.5
			c0.1-0.4,0.1-0.9,0.1-1.3c0-0.4,0-0.9-0.1-1.4l0.3-0.4c0.2-0.3,0.4-0.5,0.5-0.6c0.1-0.1,0.2-0.3,0.4-0.5c0.4-0.5,0.7-1,1-1.4
			c0.3-0.4,0.4-0.8,0.5-1c0.1-0.5,0.1-1.1-0.2-1.8l-0.1-0.3l0.3-0.1l1.6,4.6L90.3,354.8z M90.9,357.6l-1.2-3.5
			c-0.3-0.8-0.6-1.5-1-1.9c-0.4-0.5-0.8-0.7-1.3-0.9c-0.5-0.1-1.1-0.1-1.7,0.2c-1.9,0.6-2.4,2.1-1.6,4.5l1.2,3.5L90.9,357.6z"/>
		<path id="XMLID_182_" d="M77.9,335l-0.1-0.3l4.3-1.1l0.1,0.3c-0.9,0.6-1.6,1.3-2.1,1.9c-0.3,0.5-0.6,1-0.7,1.6
			c-0.2,0.6-0.3,1.3-0.3,1.9c0,0.7,0.1,1.4,0.2,2c0.1,0.5,0.3,0.9,0.6,1.3s0.5,0.6,0.9,0.8c0.2,0.1,0.5,0.2,0.8,0.3
			c0.3,0.1,0.5,0,0.7,0c0.4-0.1,0.7-0.4,1-0.8c0.1-0.2,0.2-0.4,0.3-0.8c0.1-0.3,0.1-0.7,0.1-1.2c0-0.5,0-1.1,0-2c0-0.2,0-0.4,0-0.5
			l0-0.5l0-0.7c0-1.3,0-2.2,0.1-2.8s0.3-1.1,0.6-1.6c0.2-0.4,0.5-0.7,0.8-1s0.7-0.5,1.2-0.6c0.4-0.1,0.9-0.1,1.4-0.1
			c0.5,0.1,0.9,0.2,1.3,0.5c0.6,0.3,1.1,0.8,1.4,1.4c0.4,0.6,0.7,1.3,0.9,2.1c0.2,0.6,0.2,1.1,0.3,1.7c0,0.5,0,1.2-0.2,2
			c-0.1,0.5-0.1,0.9-0.1,1.2c0,0.3,0,0.5,0.1,0.7c0.1,0.4,0.3,0.8,0.6,1c0.3,0.2,0.7,0.4,1.1,0.3l0.1,0.3l-5.8,1.5l-0.1-0.3
			c1-0.4,1.8-1.1,2.5-2c0.4-0.6,0.7-1.2,0.9-2c0.3-0.8,0.4-1.5,0.4-2.3c0-0.8,0-1.5-0.2-2.2c-0.2-0.6-0.4-1.1-0.7-1.5
			c-0.3-0.4-0.7-0.7-1.1-0.9c-0.4-0.2-0.8-0.2-1.3-0.1c-0.5,0.1-0.8,0.4-1.1,0.9c-0.1,0.2-0.2,0.5-0.3,0.8c-0.1,0.3-0.1,0.7-0.2,1.1
			c0,0.5-0.1,1.1-0.1,1.9l0,1c0,1.5-0.1,2.5-0.1,3.1c-0.1,0.7-0.2,1.2-0.3,1.6c-0.1,0.4-0.3,0.8-0.6,1.1c-0.4,0.5-0.9,0.8-1.4,1
			c-0.7,0.2-1.4,0.1-2-0.1c-0.7-0.3-1.2-0.7-1.7-1.4c-0.5-0.7-0.9-1.4-1.1-2.3c-0.4-1.4-0.3-2.9,0-4.5c0.1-0.6,0.2-1,0.1-1.2
			C79.1,335.3,78.7,335,77.9,335z"/>
		<path id="XMLID_184_" d="M75.7,326l-2.3-15l6.5-1l0.1,0.3c-1.6,0.4-2.9,1.1-4,2.1c-1.2,1.2-1.6,2.5-1.4,4l0.1,0.7l9.8-1.5
			c1.6-0.2,2.2-1.1,2-2.7l-0.3-1.9l0.4-0.1l1.7,11.2l-0.4,0.1l-0.3-1.9c-0.2-1.6-1.1-2.2-2.7-2l-9.8,1.5l0.1,0.8
			c0.2,1.5,1.1,2.7,2.7,3.4c0.8,0.4,1.7,0.6,2.7,0.7c0.3,0,0.9,0,1.5,0l0,0.3L75.7,326z"/>
		<path id="XMLID_186_" d="M72.3,301c-0.1-1.2,0-2.3,0.3-3.4c0.3-1,0.8-1.9,1.5-2.7c0.6-0.7,1.2-1.2,2-1.6s1.5-0.6,2.3-0.7
			c1.2-0.1,2.4,0.2,3.4,0.8c1.1,0.6,2,1.5,2.6,2.6c0.7,1.1,1.1,2.4,1.2,3.8c0.1,1.1,0,2.1-0.3,3.1s-0.7,1.8-1.3,2.6s-1.2,1.4-2,1.8
			c-0.8,0.5-1.6,0.7-2.5,0.8c-1.2,0.1-2.3-0.2-3.4-0.8s-2-1.5-2.7-2.6S72.4,302.4,72.3,301z M72.6,300.8c0,0.6,0.2,1.1,0.4,1.6
			c0.2,0.5,0.5,0.9,0.9,1.2c0.4,0.3,0.9,0.6,1.5,0.8s1.2,0.4,1.8,0.5c0.7,0.1,1.4,0.1,2.1,0c1-0.1,1.8-0.2,2.6-0.5s1.4-0.6,1.9-1.1
			s0.9-0.9,1.2-1.5c0.3-0.6,0.4-1.2,0.3-1.9c-0.1-0.9-0.4-1.7-1-2.3s-1.4-1.1-2.3-1.4s-2.2-0.4-3.5-0.3c-0.9,0.1-1.7,0.2-2.4,0.5
			c-0.7,0.3-1.4,0.6-1.9,1c-0.5,0.4-0.9,0.9-1.2,1.4c-0.2,0.3-0.3,0.6-0.4,0.9C72.6,300.1,72.6,300.5,72.6,300.8z"/>
		<path id="XMLID_189_" d="M84.4,285.2l0-0.4c0-0.8-0.1-1.4-0.5-1.8c-0.4-0.4-1-0.6-1.8-0.6c-0.4,0-0.8,0-1.2,0s-1,0-1.9-0.1
			c-0.8,0-1.7-0.1-2.7-0.1c-1,0-1.7-0.1-2-0.1c-0.4,0-0.7,0.1-0.9,0.2c-0.2,0.1-0.4,0.2-0.6,0.4c-0.3,0.4-0.5,0.9-0.6,1.7l0,0.4
			l-0.3,0l0.3-8.2l0.3,0l0,0.3c0,0.8,0.1,1.4,0.5,1.8c0.4,0.4,1,0.6,1.8,0.6l3.5,0.1l0.3-7l-3.5-0.1c-0.8,0-1.4,0.1-1.8,0.5
			c-0.4,0.4-0.6,1-0.6,1.8l0,0.3l-0.3,0l0.3-8.1l0.3,0l0,0.4c0,0.8,0.1,1.4,0.5,1.8c0.4,0.4,1,0.6,1.8,0.7l7.5,0.3
			c0.8,0,1.4-0.1,1.8-0.5s0.6-1,0.6-1.7l0-0.4l0.4,0l-0.3,8.1l-0.4,0l0-0.3c0-0.8-0.1-1.4-0.5-1.8c-0.4-0.4-1-0.6-1.8-0.6l-3.7-0.1
			l-0.3,7l3.7,0.1c0.8,0,1.4-0.1,1.8-0.5s0.6-1,0.6-1.7l0-0.3l0.4,0l-0.3,8.1L84.4,285.2z"/>
		<path id="XMLID_191_" d="M85.3,266.3l0-0.4c0.1-0.8,0-1.4-0.4-1.8c-0.3-0.4-0.9-0.7-1.7-0.8c-0.4,0-0.7-0.1-1-0.1
			c-0.3,0-0.6-0.1-0.8-0.1c-0.3,0-0.7-0.1-1.2-0.1c-2.2-0.2-3.8-0.4-4.8-0.5c-0.4,0-0.7,0-1,0.1s-0.5,0.2-0.6,0.4
			c-0.4,0.3-0.6,0.9-0.7,1.6l0,0.4l-0.3,0l0.8-8.1l0.3,0l0,0.4c-0.1,0.8,0,1.4,0.4,1.8c0.3,0.4,0.9,0.7,1.7,0.8l7.5,0.8
			c0.8,0.1,1.4,0,1.8-0.4c0.4-0.3,0.7-0.9,0.8-1.7l0-0.4l0.4,0l-0.8,8.1L85.3,266.3z"/>
		<path id="XMLID_194_" d="M76.2,240.5l0.1-0.3l5.5,0.9l-0.1,0.3c-0.7,0.1-1.3,0.2-1.7,0.3c-0.4,0.1-0.8,0.2-1.1,0.4
			c-1,0.4-1.8,1.1-2.5,1.9c-0.7,0.8-1.1,1.7-1.2,2.7c-0.1,0.5-0.1,1,0,1.5c0.1,0.5,0.3,1,0.5,1.3c0.4,0.6,1.1,1.1,1.9,1.5
			c0.9,0.4,2,0.7,3.4,0.9c0.4,0.1,0.8,0.1,1.3,0.2c0.4,0,0.8,0,1.1,0c0.3,0,0.7,0,1-0.1c0.3,0,0.6-0.1,0.8-0.2
			c0.3-0.1,0.7-0.3,0.9-0.5c0.3-0.2,0.5-0.4,0.8-0.7c0.2-0.3,0.4-0.6,0.6-1c0.1-0.4,0.3-0.7,0.3-1.1c0.1-0.5,0.1-1,0.1-1.6
			c0-0.5-0.1-1-0.3-1.3c-0.3-0.7-0.8-1.1-1.5-1.2l-0.7-0.1c-1.5-0.3-2.5,0.4-2.7,1.9l-0.2,1.1l-0.3-0.1l1.5-8.7l0.3,0.1l-0.1,0.3
			c-0.1,0.8,0,1.4,0.3,1.8c0.3,0.4,0.9,0.7,1.7,0.9l3,0.5l-0.1,0.3c-0.3,0.2-0.5,0.4-0.6,0.6c-0.1,0.2-0.2,0.4-0.3,0.7
			c0,0.3-0.1,0.5,0,0.8c0,0.2,0.1,0.6,0.2,1c0.1,0.7,0.2,1.3,0.2,1.7c0,0.4,0,0.9-0.1,1.5c-0.2,1.1-0.5,2-1,2.9
			c-0.5,0.9-1.1,1.6-1.8,2.2s-1.5,1-2.4,1.2c-0.9,0.2-1.8,0.3-2.7,0.1c-0.6-0.1-1.1-0.3-1.6-0.5c-0.5-0.2-1-0.5-1.4-0.9
			c-0.4-0.4-0.8-0.8-1.2-1.3c-0.4-0.6-0.7-1.1-0.9-1.8c-0.2-0.6-0.4-1.3-0.4-1.9c-0.1-0.7,0-1.3,0.1-2c0.1-0.6,0.3-1.2,0.6-1.8
			s0.6-1.2,1.1-1.9c0.4-0.5,0.6-0.9,0.6-1.1c0-0.2,0-0.5-0.2-0.7C76.8,241.1,76.6,240.9,76.2,240.5z"/>
		<path id="XMLID_196_" d="M89.2,239.3l0.1-0.4c0.2-0.8,0.2-1.4-0.1-1.9s-0.8-0.8-1.6-1c-0.4-0.1-0.8-0.2-1.2-0.3s-1-0.3-1.8-0.5
			c-0.8-0.2-1.7-0.4-2.7-0.7c-1-0.3-1.6-0.4-1.9-0.5c-0.4,0-0.7-0.1-1,0s-0.5,0.1-0.7,0.3c-0.4,0.3-0.7,0.8-0.9,1.5l-0.1,0.4
			l-0.3-0.1l2.1-7.9l0.3,0.1l-0.1,0.3c-0.2,0.8-0.2,1.4,0.1,1.9c0.3,0.5,0.8,0.8,1.6,1l3.4,0.9l1.8-6.7l-3.4-0.9
			c-0.8-0.2-1.4-0.2-1.9,0.1s-0.8,0.8-1,1.6l-0.1,0.3l-0.3-0.1l2.1-7.8l0.3,0.1l-0.1,0.4c-0.2,0.8-0.2,1.4,0.1,1.9s0.8,0.8,1.6,1
			l7.3,1.9c0.8,0.2,1.4,0.2,1.9-0.1s0.8-0.8,1-1.6l0.1-0.4l0.4,0.1l-2.1,7.8l-0.3-0.1l0.1-0.3c0.2-0.8,0.2-1.4-0.1-1.9
			c-0.3-0.5-0.8-0.8-1.6-1l-3.6-0.9l-1.8,6.7l3.6,0.9c0.8,0.2,1.4,0.2,1.9-0.1s0.8-0.8,1-1.6l0.1-0.3l0.4,0.1l-2.1,7.9L89.2,239.3z"
			/>
		<path id="XMLID_198_" d="M84,211.4l5.5-14.2l6.1,2.4l-0.1,0.3c-1.6-0.4-3.1-0.5-4.5-0.1c-1.6,0.4-2.7,1.4-3.2,2.8l-0.2,0.6
			l9.2,3.6c1.5,0.6,2.5,0.1,3-1.3l0.7-1.8l0.3,0.1l-4.1,10.6l-0.3-0.1l0.7-1.8c0.6-1.5,0.1-2.5-1.4-3l-9.2-3.6l-0.3,0.8
			c-0.6,1.4-0.3,2.9,0.7,4.3c0.5,0.7,1.2,1.3,2,1.9c0.3,0.2,0.7,0.5,1.3,0.8l-0.1,0.3L84,211.4z"/>
		<path id="XMLID_200_" d="M101.8,200.7l0.2-0.3c0.3-0.7,0.4-1.3,0.2-1.9s-0.6-0.9-1.4-1.3c-0.3-0.2-0.5-0.3-0.8-0.5
			c-0.2-0.1-0.5-0.3-0.8-0.4c-0.3-0.1-0.7-0.3-1.1-0.5c-1.9-0.9-3.4-1.5-4.4-1.8c-0.4-0.1-0.7-0.2-1-0.2c-0.3,0-0.5,0-0.7,0.2
			c-0.5,0.2-0.8,0.6-1.1,1.3l-0.2,0.3l-0.3-0.1l3.4-7.4l0.3,0.1l-0.2,0.3c-0.3,0.7-0.4,1.3-0.2,1.9c0.2,0.5,0.6,0.9,1.4,1.3l6.9,3.1
			c0.7,0.3,1.3,0.4,1.9,0.2c0.5-0.2,0.9-0.6,1.3-1.4l0.2-0.3l0.3,0.2l-3.4,7.4L101.8,200.7z"/>
		<path id="XMLID_202_" d="M94.4,186.4l4.1-7.6c0.7-1.2,1.4-2.2,2.2-3c0.8-0.8,1.7-1.3,2.7-1.5c0.9-0.3,1.7-0.4,2.6-0.3
			c0.9,0.1,1.7,0.3,2.4,0.7c0.8,0.4,1.5,1,2,1.7c0.5,0.7,0.8,1.5,1,2.4c0.2,0.9,0.2,1.8,0,2.8s-0.5,2-1.1,2.9l-4.4,8.1l-0.3-0.2
			l0.2-0.4c0.4-0.7,0.5-1.3,0.3-1.8s-0.6-1-1.3-1.4l-6.6-3.6c-0.7-0.4-1.3-0.5-1.8-0.3c-0.5,0.2-1,0.6-1.4,1.3l-0.2,0.4L94.4,186.4z
			 M97.3,181.7l10.8,5.8l1.2-2.2c0.3-0.6,0.6-1.2,0.8-1.6s0.3-0.9,0.3-1.3s0-0.8-0.2-1.2c-0.4-1.4-1.6-2.6-3.5-3.6
			c-0.6-0.3-1.2-0.6-1.9-0.8s-1.2-0.3-1.7-0.3c-0.5,0-1.1,0-1.6,0.2c-0.4,0.1-0.8,0.3-1.1,0.6c-0.3,0.2-0.7,0.6-1,1
			c-0.3,0.4-0.6,0.9-1,1.5L97.3,181.7z"/>
		<path id="XMLID_205_" d="M103.6,169.6l7.5-11.6l4.2,2.7l-0.2,0.2c-0.9-0.3-1.6-0.4-2-0.5s-1-0.1-1.5,0c-0.6,0.1-1.1,0.3-1.5,0.5
			c-0.7,0.5-1.3,1.2-1.9,2.1l-1.4,2.1l5.2,3.3l0.4-0.6c0.6-0.9,0.6-1.8,0.2-2.8c-0.2-0.5-0.5-1-1-1.5c-0.2-0.2-0.5-0.5-0.9-0.8
			l0.2-0.3l7.1,4.6l-0.2,0.3c-0.4-0.2-0.8-0.3-1.2-0.5c-0.4-0.1-0.7-0.2-1-0.2s-0.6,0-0.9,0c-0.9,0.1-1.6,0.6-2.2,1.4l-0.3,0.5
			l4.9,3.2l1.2-1.8c0.3-0.5,0.6-1,0.8-1.5c0.2-0.5,0.3-0.9,0.4-1.4s0.1-0.9,0-1.4c-0.1-0.8-0.4-1.5-0.8-2.2
			c-0.3-0.4-0.7-0.9-1.2-1.5l0.2-0.3l4.5,2.9l-7.7,11.8l-0.3-0.2l0.2-0.3c0.9-1.3,0.6-2.4-0.7-3.3l-6.3-4.1
			c-0.7-0.4-1.3-0.6-1.8-0.5c-0.5,0.1-1,0.5-1.5,1.2l-0.2,0.3L103.6,169.6z"/>
	</g>
</g>
<g id="Layer_8">
	<g id="XMLID_44_">
		<ellipse id="XMLID_229_" class="st0" cx="290.9" cy="284.3" rx="235.3" ry="236.5"/>
		<path id="XMLID_16_" d="M54.6,286.8L54.6,286.8L54.6,286.8c0.2-1.1,0.3-1.8,0.5-2.3c0.2-0.6,0.5-1.1,0.8-1.5
			c0.3-0.4,0.7-0.7,1.1-0.9c0.4-0.2,0.8-0.3,1.3-0.3c0.8,0,1.5,0.3,2.1,0.8c0.6,0.5,1.1,1.3,1.5,2.3s0.5,2.2,0.6,3.5
			c0,0.7-0.1,1.5-0.2,2.2c-0.1,0.7-0.3,1.3-0.5,1.7c-0.3,0.5-0.6,0.8-1,1.1c-0.4,0.3-0.9,0.4-1.3,0.4c-0.5,0-0.9-0.1-1.3-0.5
			c-0.3-0.3-0.5-0.7-0.5-1.2c0-0.5,0.1-0.9,0.4-1.2c0.3-0.3,0.7-0.5,1.1-0.5c0.3,0,0.5,0.1,0.8,0.2c0.2,0.1,0.4,0.3,0.6,0.6
			c0.2,0.3,0.4,0.4,0.5,0.4c0.3,0,0.6-0.3,0.7-0.9c0.2-0.6,0.3-1.3,0.3-2.2c0-1.2-0.3-2.2-0.9-2.7c-0.7-0.6-1.6-0.9-2.8-0.8
			c-1.4,0.1-2.3,0.4-2.8,1c-0.5,0.6-0.8,1.4-0.8,2.4c0,0.3,0,0.7,0.1,1.4c0,0.2,0,0.4,0,0.6c0,0.4-0.1,0.6-0.3,0.6
			c-0.2,0-0.4-0.2-0.4-0.6c0-0.1,0-0.3,0.1-0.7c0-0.5,0.1-0.9,0.1-1.2c0-0.6-0.1-1.1-0.3-1.5c-0.2-0.4-0.5-0.6-0.9-0.8
			c-0.4-0.2-1-0.2-1.7-0.2c-0.4,0-0.8,0-1.1,0.1c-0.3,0.1-0.6,0.2-0.9,0.3c-0.3,0.1-0.5,0.3-0.7,0.5c-0.5,0.5-0.7,1.1-0.7,2
			c0,0.5,0.1,1,0.2,1.4c0.1,0.4,0.3,0.8,0.5,1.1c0.2,0.3,0.4,0.4,0.6,0.4c0.1,0,0.2,0,0.3-0.1c0.1-0.1,0.2-0.2,0.3-0.4
			c0.2-0.3,0.3-0.6,0.5-0.7s0.5-0.2,0.8-0.2c0.4,0,0.8,0.1,1.1,0.4c0.3,0.3,0.4,0.7,0.5,1.1c0,0.5-0.1,0.9-0.5,1.2
			c-0.3,0.3-0.7,0.5-1.2,0.5c-0.7,0-1.2-0.2-1.8-0.7s-0.9-1.1-1.2-1.9s-0.5-1.7-0.5-2.8c0-1.1,0.1-2,0.4-2.8
			c0.3-0.8,0.7-1.4,1.2-1.9c0.5-0.5,1.2-0.7,1.9-0.7c0.5,0,0.9,0.1,1.3,0.3s0.7,0.5,1,0.8c0.3,0.4,0.6,1,0.8,1.8
			C54.4,286,54.5,286.4,54.6,286.8z"/>
		<path id="XMLID_209_" d="M89,164.7l4.3,3.6l-5.2,9.5c-0.6-0.4-1-1-1.4-2c-0.3-0.9-0.6-2.4-0.9-4.5c-0.2-1.2-0.3-1.9-0.3-2.2
			c0-0.1,0-0.1-0.1-0.2c0-0.1,0-0.2-0.1-0.2c-0.2-0.8-0.5-1.4-0.9-1.8s-0.9-0.9-1.5-1.2c-1-0.6-2-0.8-2.8-0.6s-1.5,0.8-2.1,1.7
			c-0.4,0.7-0.6,1.5-0.7,2.2c0,0.8,0.1,1.5,0.4,2.1s0.8,1.1,1.4,1.4c0.6,0.4,1.1,0.4,1.2,0.1c0.1-0.1,0-0.2-0.1-0.3
			c-0.1-0.1-0.3-0.2-0.4-0.4c-0.3-0.4-0.4-0.7-0.5-1.1s0.1-0.7,0.3-1.1c0.2-0.3,0.4-0.5,0.6-0.7c0.3-0.2,0.6-0.3,0.9-0.2
			c0.3,0,0.6,0.1,0.9,0.2c0.3,0.2,0.6,0.4,0.8,0.8c0.2,0.3,0.3,0.7,0.3,1c0,0.4-0.1,0.7-0.3,1.1c-0.4,0.7-0.9,1.1-1.6,1.3
			c-0.7,0.2-1.4,0.1-2.1-0.3c-0.4-0.2-0.8-0.6-1.1-1c-0.3-0.4-0.6-0.9-0.7-1.4c-0.4-1.4-0.1-2.9,0.9-4.8c0.4-0.8,0.9-1.4,1.4-1.9
			c0.5-0.5,1.1-0.9,1.7-1.2c0.6-0.3,1.2-0.4,1.8-0.4c0.6,0,1.2,0.2,1.7,0.5c0.8,0.4,1.3,1.1,1.6,2c0.1,0.4,0.2,0.8,0.3,1.2
			c0.1,0.8,0,1.9-0.1,3.3c-0.2,2-0.3,3.4-0.1,4.3c0,0.2,0.1,0.6,0.3,1.3l3.2-5.8c0.3-0.5,0.5-1,0.5-1.3c0.1-0.3,0-0.7-0.2-1
			c-0.2-0.3-0.5-0.7-0.9-1.1l-0.5-0.5L89,164.7z"/>
		<path id="XMLID_211_" d="M168.8,89.4l1.3-0.8c0.8-0.5,1.3-1,1.4-1.6c0.1-0.6,0-1.3-0.6-2.2l-3.3-5.5c-0.4-0.6-0.6-1-0.9-1.2
			c-0.2-0.2-0.5-0.4-0.8-0.4c-0.6-0.1-1.3,0-2.1,0.5l-0.9,0.6l-0.2-0.3c0.7-0.5,1.3-0.9,1.8-1.3c0.5-0.4,1-0.9,1.3-1.3
			c0.4-0.4,0.7-1,1.1-1.6l0.6-0.4l5.9,9.8c0.9,1.4,2,1.7,3.6,0.7l1.2-0.7l0.2,0.3l-9.4,5.6L168.8,89.4z"/>
		<path id="XMLID_213_" d="M415.4,74.2l-0.1,0.2c-0.6,0.3-1,0.5-1.5,0.5c-0.4,0.1-0.9,0.1-1.5,0.1c-0.7,0-1.4-0.2-2.2-0.4
			c-0.7-0.2-1.5-0.6-2.3-1c-0.8-0.4-1.5-1-2.3-1.6l-2.6,3.3c1.1,0,2,0.1,2.6,0.2c0.6,0.1,1.3,0.4,2,0.8c0.6,0.4,1.2,0.8,1.7,1.2
			c0.5,0.4,0.9,0.9,1.2,1.3c0.3,0.5,0.5,0.9,0.7,1.5c0.1,0.5,0.2,1.1,0.1,1.6c-0.1,0.5-0.2,1-0.5,1.5c-0.5,0.9-1.3,1.5-2.4,1.8
			c-1.7,0.4-3.5,0.1-5.6-1.1c-0.6-0.4-1.2-0.8-1.8-1.3s-0.9-0.9-1.2-1.3c-0.3-0.5-0.4-0.9-0.4-1.4c0-0.5,0.1-0.9,0.3-1.3
			c0.2-0.4,0.6-0.7,1.1-0.8s0.9-0.1,1.3,0.2c0.3,0.2,0.5,0.4,0.7,0.6s0.2,0.5,0.2,0.8c0,0.3-0.1,0.6-0.2,0.8
			c-0.3,0.5-0.8,0.8-1.5,0.8c-0.3,0-0.5,0.1-0.6,0.2c-0.1,0.2,0,0.5,0.4,1c0.4,0.4,0.9,0.8,1.5,1.2c1.1,0.6,2.1,0.8,2.9,0.5
			c0.9-0.3,1.6-1.1,2.4-2.4c0.4-0.7,0.7-1.4,0.7-2.1s-0.1-1.2-0.4-1.8s-0.8-1-1.4-1.3c-0.4-0.2-0.8-0.4-1.2-0.5
			c-0.4-0.1-0.9-0.2-1.4-0.2c-0.5,0-1.1,0-1.7,0l-0.3-0.2l4.8-6.2c0.3,0.4,0.7,0.7,1,0.9c0.8,0.7,1.8,1.3,2.9,2
			c0.5,0.3,1.1,0.6,1.6,0.8c0.5,0.2,1,0.4,1.5,0.6C414.5,73.9,414.9,74.1,415.4,74.2z"/>
		<path id="XMLID_215_" d="M504.7,167.6l0.4,0.7l-8.2,4.6l1.5,2.7l-1.4,0.8l-1.5-2.7l-0.7,0.4c-0.6,0.4-1,0.8-1.2,1.4
			c-0.1,0.6,0,1.2,0.3,1.9l0.2,0.4l-0.3,0.2l-4.3-7.8l0.3-0.2l0.2,0.4c0.3,0.6,0.7,1,1,1.3s0.8,0.4,1.2,0.4c0.4,0,0.9-0.2,1.5-0.5
			l0.4-0.2l-3.2-5.8l1.4-0.8L504.7,167.6z M501.5,167.3l-9-2l3,5.4L501.5,167.3z"/>
		<path id="XMLID_218_" d="M527.2,289.5L527.2,289.5L527.2,289.5c-0.2,1.1-0.4,1.8-0.6,2.3c-0.2,0.6-0.5,1.1-0.8,1.4
			c-0.3,0.4-0.7,0.7-1.1,0.9c-0.4,0.2-0.9,0.3-1.3,0.3c-0.8,0-1.5-0.3-2.1-0.9c-0.6-0.6-1.1-1.4-1.4-2.4c-0.3-1-0.5-2.2-0.5-3.5
			c0-0.7,0.1-1.5,0.3-2.2c0.2-0.7,0.4-1.3,0.6-1.7c0.3-0.5,0.6-0.8,1.1-1.1c0.4-0.3,0.9-0.4,1.3-0.4c0.5,0,0.9,0.2,1.2,0.5
			c0.3,0.3,0.5,0.7,0.5,1.2c0,0.5-0.2,0.9-0.5,1.2c-0.3,0.3-0.7,0.4-1.1,0.4c-0.3,0-0.5-0.1-0.7-0.2c-0.2-0.1-0.4-0.4-0.6-0.7
			c-0.2-0.3-0.3-0.4-0.5-0.4c-0.3,0-0.6,0.3-0.8,0.9c-0.2,0.6-0.3,1.3-0.3,2.2c0,1.2,0.2,2.2,0.8,2.7c0.6,0.6,1.6,0.9,2.8,0.9
			c1.4-0.1,2.3-0.4,2.9-0.9c0.5-0.5,0.8-1.3,0.8-2.3c0-0.3,0-0.7-0.1-1.4c0-0.2,0-0.4,0-0.6c0-0.4,0.1-0.6,0.4-0.6
			c0.2,0,0.3,0.2,0.3,0.7c0,0.1,0,0.3-0.1,0.7c-0.1,0.5-0.1,0.9-0.1,1.2c0,0.6,0.1,1.1,0.3,1.5c0.2,0.4,0.5,0.6,0.9,0.8
			c0.4,0.2,1,0.3,1.7,0.3c0.4,0,0.8,0,1.1-0.1c0.3-0.1,0.6-0.2,0.9-0.3c0.3-0.1,0.5-0.3,0.7-0.5c0.5-0.5,0.7-1.1,0.7-2
			c0-0.5,0-1-0.2-1.5c-0.1-0.5-0.3-0.8-0.4-1.1c-0.2-0.3-0.4-0.4-0.6-0.4c-0.1,0-0.2,0-0.3,0.1c-0.1,0.1-0.2,0.2-0.3,0.4
			c-0.2,0.3-0.4,0.5-0.6,0.7s-0.5,0.2-0.8,0.2c-0.4,0-0.8-0.2-1.1-0.5c-0.3-0.3-0.4-0.7-0.4-1.1c0-0.5,0.2-0.9,0.5-1.2
			c0.3-0.3,0.7-0.5,1.2-0.5c0.7,0,1.2,0.2,1.7,0.7c0.5,0.5,0.9,1.1,1.2,1.9s0.4,1.8,0.4,2.8c0,1.1-0.2,2-0.5,2.8
			c-0.3,0.8-0.7,1.4-1.3,1.8c-0.6,0.4-1.2,0.6-1.9,0.6c-0.5,0-0.9-0.1-1.3-0.3c-0.4-0.2-0.7-0.5-1-0.9c-0.3-0.4-0.6-1.1-0.7-1.9
			C527.3,290.3,527.3,289.9,527.2,289.5z"/>
		<path id="XMLID_220_" d="M488.8,410.4l-4.2-3.7l5.6-9.3c0.6,0.4,1,1.1,1.3,2.1c0.3,0.9,0.5,2.4,0.7,4.5c0.1,1.2,0.2,1.9,0.2,2.2
			c0,0.1,0,0.1,0,0.2s0,0.2,0.1,0.3c0.2,0.8,0.5,1.4,0.8,1.9c0.4,0.5,0.8,0.9,1.4,1.3c1,0.6,2,0.8,2.8,0.7c0.9-0.2,1.6-0.7,2.1-1.7
			c0.4-0.7,0.7-1.4,0.7-2.2s0-1.5-0.3-2.1c-0.3-0.6-0.7-1.1-1.3-1.5c-0.6-0.4-1-0.4-1.2-0.1c-0.1,0.1,0,0.2,0.1,0.4
			c0.1,0.1,0.2,0.2,0.4,0.4c0.3,0.4,0.4,0.7,0.4,1.1c0,0.3-0.1,0.7-0.3,1.1c-0.2,0.3-0.4,0.5-0.7,0.7c-0.3,0.2-0.6,0.2-0.9,0.2
			c-0.3,0-0.6-0.1-0.9-0.3c-0.3-0.2-0.6-0.5-0.7-0.8c-0.2-0.3-0.2-0.7-0.2-1c0-0.4,0.1-0.7,0.3-1.1c0.4-0.7,0.9-1.1,1.7-1.2
			c0.7-0.2,1.4,0,2.1,0.4c0.4,0.3,0.8,0.6,1.1,1c0.3,0.4,0.5,0.9,0.7,1.4c0.4,1.4,0,3-1.1,4.7c-0.4,0.7-0.9,1.4-1.5,1.9
			c-0.6,0.5-1.1,0.9-1.7,1.2c-0.6,0.3-1.2,0.4-1.8,0.3s-1.2-0.2-1.7-0.5c-0.8-0.5-1.3-1.1-1.6-2c-0.1-0.4-0.2-0.8-0.3-1.2
			c0-0.8,0.1-1.9,0.3-3.3c0.3-2,0.4-3.4,0.2-4.3c0-0.2-0.1-0.6-0.2-1.3l-3.4,5.7c-0.3,0.5-0.5,1-0.6,1.3c-0.1,0.3,0,0.7,0.1,1
			c0.2,0.3,0.5,0.7,0.9,1.1l0.5,0.5L488.8,410.4z"/>
		<path id="XMLID_222_" d="M406.6,483.1l-1.3,0.7c-0.8,0.5-1.3,1-1.5,1.6s0,1.3,0.5,2.2l3.1,5.6c0.3,0.6,0.6,1,0.8,1.2
			s0.5,0.4,0.8,0.5c0.6,0.2,1.3,0,2.1-0.4l1-0.5l0.2,0.3c-0.7,0.4-1.3,0.9-1.8,1.3s-1,0.8-1.4,1.3c-0.4,0.4-0.8,0.9-1.2,1.5
			l-0.6,0.3l-5.6-10c-0.8-1.4-2-1.7-3.5-0.9l-1.2,0.7l-0.2-0.3l9.5-5.3L406.6,483.1z"/>
		<path id="XMLID_224_" d="M165.5,493.8l0.1-0.2c0.6-0.3,1-0.4,1.5-0.5s0.9-0.1,1.6-0.1c0.7,0,1.4,0.2,2.2,0.4
			c0.7,0.2,1.5,0.6,2.3,1c0.8,0.4,1.5,1,2.3,1.6l2.6-3.3c-1.1,0-2-0.1-2.6-0.2c-0.6-0.1-1.3-0.4-2-0.8c-0.6-0.4-1.2-0.8-1.7-1.2
			c-0.5-0.4-0.9-0.9-1.2-1.3s-0.5-0.9-0.7-1.5c-0.1-0.5-0.2-1.1-0.1-1.6c0.1-0.5,0.2-1,0.5-1.5c0.5-0.9,1.3-1.5,2.4-1.8
			c1.7-0.4,3.5-0.1,5.6,1.1c0.6,0.4,1.2,0.8,1.7,1.3s0.9,0.9,1.2,1.3c0.3,0.5,0.4,0.9,0.4,1.4c0,0.5-0.1,0.9-0.3,1.2
			c-0.3,0.4-0.6,0.7-1.1,0.8c-0.5,0.1-0.9,0.1-1.3-0.2c-0.3-0.2-0.5-0.4-0.6-0.6c-0.1-0.2-0.2-0.5-0.2-0.8c0-0.3,0.1-0.6,0.2-0.8
			c0.3-0.5,0.8-0.8,1.5-0.8c0.3,0,0.5-0.1,0.6-0.2c0.1-0.2,0-0.5-0.4-1c-0.4-0.4-0.9-0.8-1.5-1.2c-1.1-0.6-2.1-0.8-2.9-0.5
			c-0.9,0.3-1.7,1.1-2.4,2.4c-0.4,0.7-0.7,1.4-0.7,2.1c-0.1,0.6,0,1.2,0.3,1.8c0.3,0.5,0.8,1,1.4,1.3c0.4,0.2,0.8,0.4,1.2,0.5
			c0.4,0.1,0.9,0.2,1.4,0.2c0.5,0,1.1,0,1.7,0l0.3,0.2l-4.8,6.2c-0.3-0.4-0.7-0.7-1-0.9c-0.8-0.7-1.8-1.3-2.9-2
			c-0.5-0.3-1.1-0.6-1.6-0.8c-0.5-0.2-1-0.4-1.5-0.6C166.4,494.1,166,494,165.5,493.8z"/>
		<path id="XMLID_226_" d="M79.4,405.2l-0.4-0.7l8.2-4.7l-1.6-2.7l1.4-0.8l1.6,2.7l0.7-0.4c0.6-0.4,1-0.9,1.2-1.4
			c0.1-0.6,0-1.2-0.4-1.9l-0.2-0.4l0.3-0.2l4.5,7.7l-0.3,0.2l-0.2-0.4c-0.3-0.6-0.7-1-1.1-1.3c-0.4-0.3-0.8-0.4-1.2-0.4
			c-0.4,0-0.9,0.2-1.5,0.5l-0.4,0.2l3.3,5.7l-1.4,0.8L79.4,405.2z M82.6,405.5l9,1.9l-3.1-5.3L82.6,405.5z"/>
	</g>
</g>
<g id="Layer_9">
	<g id="XMLID_9_">
		<g id="XMLID_40_">
			<path id="XMLID_43_" class="st2" d="M162.2,178.8c-54.8,67.9-48.5,167.7,16.3,228.1"/>
			<g id="XMLID_41_">
				<path id="XMLID_42_" d="M170.1,169.6c-5.3,2.9-12.6,6-18.3,6.8l9.5,3.6l5,8.8C166.2,183,168,175.3,170.1,169.6z"/>
			</g>
		</g>
	</g>
	<g id="XMLID_5_">
		<g id="XMLID_25_">
			<path id="XMLID_38_" class="st2" d="M423.6,389.3c37.8-46.8,46.5-108.7,27.1-162.5c-8.8-24.2-23.3-46.8-43.4-65.6"/>
			<g id="XMLID_36_">
				<path id="XMLID_37_" d="M415.7,398.4c5.3-2.9,12.6-5.9,18.4-6.8l-9.5-3.6l-5-8.8C419.7,385.1,417.8,392.8,415.7,398.4z"/>
			</g>
		</g>
	</g>
	<g id="XMLID_2_">
	</g>
	<g id="XMLID_54_">
	</g>
	<g id="XMLID_230_">
	</g>
	<g id="XMLID_231_">
	</g>
	<g id="XMLID_232_">
	</g>
	<g id="XMLID_233_">
	</g>
	<g id="XMLID_234_">
	</g>
</g>
</svg>
